<svg width="70" height="64" viewBox="0 0 70 64" fill="none" xmlns="http://www.w3.org/2000/svg">
<path d="M19.5867 17.8393C15.1129 15.3708 9.37054 16.8294 5.54226 19.9039C2.13688 22.6642 -0.0220869 26.928 0.000170462 31.3489C0.0224279 35.5454 1.89205 39.54 5.58678 41.6719C9.32602 43.8262 13.8443 44.0506 18.0732 44.0282C29.1351 43.9833 40.2193 43.7589 51.2812 43.6243C55.9553 43.5569 60.7851 43.1754 64.7692 40.4376C68.8201 37.6549 70.022 32.4261 69.9997 27.7134C69.9774 22.4846 67.3066 17.9739 62.8996 15.2361C58.0475 12.229 52.1715 11.8251 46.6294 12.3636C47.1859 12.5207 47.7423 12.6554 48.2987 12.8125C46.5849 7.13485 41.8886 2.78125 36.3688 0.941072C30.1367 -1.14596 21.6789 0.15563 17.5167 5.67617C15.4913 8.39155 14.9349 12.1168 16.2036 15.281C16.849 16.8519 21.9905 14.7424 21.345 13.1491C20.2322 10.3664 20.5883 6.66358 22.8585 4.55411C24.6614 2.87102 27.7997 2.89346 30.1367 3.34228C36.1907 4.48678 41.3767 9.01991 43.1573 14.9668C43.3353 15.5727 44.4037 15.4605 44.8266 15.4157C52.3496 14.6751 61.4083 17.0987 64.1237 25.0878C64.8582 27.1973 64.9028 29.4414 64.6357 31.6406C64.4131 33.6379 64.0792 35.8372 63.0999 37.6325C62.766 38.2384 62.3877 38.777 61.8535 39.2258C61.3638 39.6522 61.0077 39.7644 60.4958 39.9215C59.0936 40.3478 57.5133 40.46 55.9775 40.5049C46.5181 40.7967 37.0142 40.7518 27.5548 40.864C23.5262 40.9089 19.3196 41.2679 15.3133 40.6171C11.8634 40.0785 8.45798 38.6423 6.65513 35.4557C4.67422 31.9548 4.741 27.4666 6.54385 23.8984C7.36737 22.4173 8.5025 20.8015 10.0383 20.0385C10.1273 19.9937 10.3944 19.8815 10.6392 19.8141C11.0621 19.7019 11.5072 19.6795 11.9524 19.7019C12.9762 19.7244 13.9778 20.0161 14.8904 20.5098C15.9365 21.0933 17.4277 20.5322 18.3848 19.9937C18.7632 19.7468 20.6105 18.4003 19.5867 17.8393Z" fill="url(#paint0_linear)"/>
<path d="M18.2957 43.7814C18.8521 45.9133 19.1192 48.0901 19.0747 50.2893C19.0525 51.0074 19.186 52.5334 18.7631 53.1393C19.0079 52.9149 18.8967 52.8925 18.4515 53.0496C18.1622 53.072 17.8728 53.0945 17.5835 53.1169C17.0715 53.1393 16.5596 53.1169 16.0254 53.0945C15.1129 53.0496 13.8887 53.4984 14.4452 54.6205C15.0016 55.7425 16.7377 56.3036 17.8728 56.3709C19.2973 56.4382 20.8108 56.4606 22.2353 56.1913C23.8155 55.8772 24.1049 54.9346 24.2384 53.476C24.5278 50.581 24.3275 47.7086 23.593 44.881C23.2814 43.6692 21.7901 43.0184 20.6773 42.794C20.0986 42.6369 17.9841 42.5695 18.2957 43.7814Z" fill="url(#paint1_linear)"/>
<path d="M31.027 44.0055C31.1383 45.8905 31.2273 47.7756 31.3386 49.6382C31.4053 51.052 32.9856 52.2638 34.3433 52.1741C35.9013 52.0619 36.5245 50.7154 36.4578 49.324C36.3465 47.439 36.2575 45.5539 36.1462 43.6913C36.0794 42.2775 34.4991 41.0657 33.1414 41.1554C31.5834 41.2452 30.9602 42.6141 31.027 44.0055Z" fill="url(#paint2_linear)"/>
<path d="M43.0682 44.6562C43.2018 46.3393 43.3353 48 43.4689 49.683C43.5802 51.2091 43.5356 52.8921 43.8918 54.3957C44.6708 57.8517 48.5658 57.7394 51.2812 57.1111C52.5054 56.8194 53.9299 55.8319 54.1302 54.4855C54.3082 53.1839 53.0173 52.6453 51.9489 52.9146C51.1922 53.0941 50.1906 53.4532 49.4561 52.9819C48.6771 52.4882 48.8106 51.2539 48.7439 50.4236C48.5436 47.798 48.3432 45.1724 48.1207 42.5467C48.0094 41.2003 46.1175 41.3574 45.2717 41.694C44.0921 42.1877 42.9569 43.3097 43.0682 44.6562Z" fill="url(#paint3_linear)"/>
<path d="M51.1032 52.4878C48.1207 55.4052 49.1668 60.073 52.5499 62.16C55.3989 63.9104 59.3829 64.2022 62.2319 62.2947C66.6166 59.3324 66.995 52.3756 62.3432 49.4583C60.5181 48.3138 58.3814 47.865 56.2669 48.2913C53.9521 48.7402 51.9267 50.2437 50.2797 51.8819C47.7868 54.3954 52.2383 57.1107 54.375 54.9788C55.1985 54.1485 56.4895 52.8918 57.5801 52.802C57.914 52.7796 58.003 52.8245 58.3591 52.9142C57.914 52.802 58.3814 52.9367 58.5594 53.004C58.693 53.0713 58.8265 53.1162 58.96 53.206C58.7152 53.0713 58.6707 53.0489 58.8265 53.1386C59.0268 53.2733 59.2049 53.4304 59.3829 53.5875C58.9155 53.1611 59.9616 54.5749 59.6723 53.9914C59.7613 54.1709 59.8281 54.3505 59.9171 54.53C59.9616 54.6422 60.162 55.4501 60.0507 54.8442C60.1397 55.2706 60.1397 55.6745 60.1397 56.1009C60.1619 56.7068 60.2065 55.8989 60.1174 56.3477C60.0729 56.5721 60.0284 56.7966 59.9616 56.9985C59.8949 57.2229 59.8281 57.4249 59.7391 57.6269C59.9616 57.1107 59.7168 57.6269 59.65 57.7391C59.5833 57.8513 59.0713 58.5021 59.4942 58.0308C59.3607 58.1879 59.2271 58.3001 59.0936 58.4348C59.0046 58.5245 58.8933 58.6143 58.8043 58.6816C59.0936 58.4796 59.1158 58.4572 58.871 58.6143C58.782 58.6143 58.092 58.9734 58.8043 58.7041C58.5817 58.7938 58.3368 58.8612 58.1143 58.9285C57.914 58.9734 57.9807 58.9734 58.3146 58.906C58.1588 58.9285 58.003 58.9285 57.8694 58.9509C57.4243 58.9734 57.1795 58.9509 56.6453 58.7714C56.1111 58.5919 55.666 58.345 55.3098 57.8737C54.9982 57.4922 54.8647 57.0659 54.8869 56.5273C54.9092 56.0784 54.9537 55.8989 55.2208 55.6296C56.2001 54.6871 56.1556 53.1611 55.0427 52.3308C53.9299 51.4331 52.1048 51.5004 51.1032 52.4878Z" fill="url(#paint4_linear)"/>
<path d="M35.2559 48.6958C31.9172 47.5513 28.7789 49.5037 27.1319 52.421C25.4403 55.473 25.6852 59.0412 28.3338 61.4199C30.6263 63.4621 34.1207 64.2924 37.0587 63.3499C40.0412 62.3849 41.9999 59.5124 41.9108 56.3707C41.8218 53.4982 40.108 50.3564 37.1477 49.6607C35.7678 49.3466 34.2098 49.6832 33.453 51.0297C32.8521 52.1293 33.2304 53.8573 34.6104 54.1714C34.8552 54.2163 35.0778 54.2836 35.3004 54.3958C35.0555 54.2836 35.2113 54.351 35.3449 54.4632C35.8568 54.8447 35.1891 54.1939 35.5897 54.6876C35.7233 54.8447 35.8345 55.0242 35.9458 55.1813C36.0571 55.3608 35.9013 55.0466 36.0571 55.4057C36.1461 55.6077 36.2129 55.8096 36.2797 56.0116C36.4132 56.3707 36.4132 56.4829 36.4355 57.0439C36.4355 57.201 36.4355 57.3805 36.4355 57.5601C36.4578 57.1786 36.3687 57.8742 36.3687 57.8967C36.3465 57.964 36.1462 58.525 36.2574 58.2557C36.391 57.964 36.0794 58.4577 36.2129 58.3455C35.701 58.8392 35.612 58.9514 34.8107 58.8616C33.4307 58.7046 31.4276 57.6947 31.4721 55.877C31.4944 54.9344 31.7392 54.3734 32.3624 53.5655C32.1843 53.7899 32.7185 53.2065 32.6963 53.2289C32.4292 53.4758 32.8743 53.1616 32.9188 53.0718C33.0301 52.9147 32.8298 53.0494 32.6517 53.1616C32.4292 53.2962 32.7408 53.2065 32.6963 53.184C34.0317 53.6328 35.6787 53.0718 36.391 51.8151C37.0587 50.6482 36.569 49.1446 35.2559 48.6958Z" fill="url(#paint5_linear)"/>
<path d="M0.912724 55.8993C-0.0443443 59.3777 3.07169 62.2502 5.96516 63.3947C8.63604 64.427 11.7966 64.2025 13.9556 62.2277C16.1145 60.2529 16.7155 56.9091 15.892 54.1713C14.9349 51.0071 12.175 49.0547 9.01442 48.6732C5.34195 48.2468 1.84754 50.6705 1.17981 54.3733C0.934982 55.8095 1.84754 57.3355 3.22749 57.7619C4.5852 58.1659 5.96516 57.3355 6.20999 55.9217C6.49933 54.306 8.32444 53.8796 9.45957 54.1489C9.99375 54.2835 10.016 54.2611 10.4612 54.5528C10.8395 54.7997 10.617 54.665 10.8618 54.9568C11.1734 55.3383 10.884 54.7997 11.0176 55.2934C11.0398 55.428 11.1289 55.6973 11.0844 55.4056C11.1956 55.9891 11.1734 56.1237 11.1066 56.5276C10.9063 57.8517 9.92697 58.6371 8.6583 58.5698C7.90155 58.5249 7.16706 58.3454 6.61062 58.0312C6.4103 57.919 6.20999 57.7844 6.00967 57.6497C6.29902 57.8741 5.9429 57.5599 5.85387 57.4477C5.72032 57.2906 5.72032 57.3131 5.89838 57.5151C5.85387 57.4477 5.80935 57.358 5.76484 57.2906C5.83161 57.5824 5.76484 58.0985 5.9429 57.4477C6.32127 56.0564 5.18615 54.4631 3.89522 54.0591C2.44849 53.6327 1.2911 54.5304 0.912724 55.8993Z" fill="url(#paint6_linear)"/>
<defs>
<linearGradient id="paint0_linear" x1="-22.2043" y1="26.5846" x2="84.526" y2="42.0437" gradientUnits="userSpaceOnUse">
<stop stop-color="#DC6D3E"/>
<stop offset="0.0001" stop-color="#ED9E40"/>
<stop offset="1" stop-color="#CC1276"/>
</linearGradient>
<linearGradient id="paint1_linear" x1="-22.2043" y1="26.5846" x2="84.526" y2="42.0437" gradientUnits="userSpaceOnUse">
<stop stop-color="#DC6D3E"/>
<stop offset="0.0001" stop-color="#ED9E40"/>
<stop offset="1" stop-color="#CC1276"/>
</linearGradient>
<linearGradient id="paint2_linear" x1="-22.2043" y1="26.5846" x2="84.526" y2="42.0437" gradientUnits="userSpaceOnUse">
<stop stop-color="#DC6D3E"/>
<stop offset="0.0001" stop-color="#ED9E40"/>
<stop offset="1" stop-color="#CC1276"/>
</linearGradient>
<linearGradient id="paint3_linear" x1="-22.2043" y1="26.5846" x2="84.526" y2="42.0437" gradientUnits="userSpaceOnUse">
<stop stop-color="#DC6D3E"/>
<stop offset="0.0001" stop-color="#ED9E40"/>
<stop offset="1" stop-color="#CC1276"/>
</linearGradient>
<linearGradient id="paint4_linear" x1="-22.2043" y1="26.5846" x2="84.526" y2="42.0437" gradientUnits="userSpaceOnUse">
<stop stop-color="#DC6D3E"/>
<stop offset="0.0001" stop-color="#ED9E40"/>
<stop offset="1" stop-color="#CC1276"/>
</linearGradient>
<linearGradient id="paint5_linear" x1="-22.2043" y1="26.5846" x2="84.526" y2="42.0437" gradientUnits="userSpaceOnUse">
<stop stop-color="#DC6D3E"/>
<stop offset="0.0001" stop-color="#ED9E40"/>
<stop offset="1" stop-color="#CC1276"/>
</linearGradient>
<linearGradient id="paint6_linear" x1="-22.2043" y1="26.5846" x2="84.526" y2="42.0437" gradientUnits="userSpaceOnUse">
<stop stop-color="#DC6D3E"/>
<stop offset="0.0001" stop-color="#ED9E40"/>
<stop offset="1" stop-color="#CC1276"/>
</linearGradient>
</defs>
</svg>
