<svg width="79" height="62" viewBox="0 0 79 62" fill="none" xmlns="http://www.w3.org/2000/svg">
<path d="M0.0190829 2.61953C-0.0318048 10.6976 0.0190829 18.7926 0.171746 26.8707C0.239596 30.8591 0.341372 34.8474 0.477072 38.8358C0.59581 42.3848 0.39226 46.3393 3.5473 48.7729C4.95519 49.8545 6.75322 49.8545 8.44948 49.9559C10.4511 50.0911 12.4696 50.1756 14.4882 50.2601C18.5083 50.4122 22.5454 50.4629 26.5825 50.4798C34.5888 50.5136 42.5951 50.446 50.5845 50.4291C58.7096 50.4122 66.8347 50.4967 74.9597 50.3615C76.4694 50.3277 77.9452 50.0235 78.6067 48.5363C79.1834 47.2688 78.9799 45.7309 78.8951 44.3789C78.6406 40.4244 78.3862 36.4529 78.1148 32.4984C77.5889 24.471 77.0631 16.4436 76.5542 8.41616C76.4185 6.38818 76.0284 4.6644 74.7053 3.05892C73.5688 1.70694 72.0761 1.13235 70.3459 0.980247C66.5293 0.642251 62.6449 0.760549 58.8283 0.70985C42.7139 0.490153 26.6164 0.287355 10.5189 0.0845575C8.50037 0.0507579 6.46486 0.0338581 4.44632 5.84993e-05C3.47945 -0.0168413 5.14178 3.63352 6.32916 3.63352C21.5276 3.81941 36.7261 4.02221 51.9246 4.20811C55.7581 4.25881 59.5747 4.30951 63.4082 4.36021C65.2232 4.37711 67.0213 4.41091 68.8363 4.46161C70.4307 4.5123 72.2288 4.39401 73.7724 4.8672C74.2643 5.0193 74.6375 5.45869 74.1286 4.6644C73.6027 3.85321 73.8572 4.29261 73.8911 4.7151C73.9759 5.61079 74.0098 6.52338 74.0777 7.41907C74.1964 9.31185 74.3321 11.2046 74.4509 13.1143C74.7053 16.8999 74.9428 20.7023 75.1972 24.4879C75.4347 28.2227 75.6891 31.9576 75.9266 35.6924C76.0453 37.5852 76.181 39.478 76.2998 41.3877C76.3846 42.6552 76.656 44.1085 76.0962 45.3253C75.4008 46.8632 73.5518 46.728 72.144 46.728C70.2272 46.728 68.2934 46.7449 66.3767 46.7449C62.594 46.7618 58.7944 46.7618 55.0117 46.7787C47.3786 46.7956 39.7454 46.8294 32.1123 46.8463C24.5639 46.8632 16.9986 46.8801 9.45027 46.4914C7.6692 46.4069 5.80332 46.4069 4.03921 46.1027C3.66604 46.0351 3.37767 45.9337 3.03842 45.8154C2.75006 45.714 2.95361 45.6633 2.93665 45.7985C2.91968 45.9675 3.46249 46.39 3.42856 46.5928C3.44552 46.4745 3.30982 46.0858 3.2759 45.9337C3.24197 45.6464 3.22501 45.3422 3.22501 45.038C3.07235 41.2187 2.97057 37.3993 2.88576 33.58C2.71613 26.0596 2.63132 18.5391 2.63132 11.0018C2.63132 9.09215 2.64828 7.18247 2.64828 5.2728C2.64828 4.36021 1.91889 3.32932 1.30824 2.70403C0.968987 2.36603 0.0360455 1.69004 0.0190829 2.61953Z" fill="url(#paint0_linear)"/>
<path d="M3.0045 42.5707C22.1892 42.7904 41.3738 42.7566 60.5585 42.4693C65.9696 42.3848 71.3806 42.3003 76.8087 42.182C77.8094 42.1651 77.6059 40.6779 77.3684 40.1033C77.0122 39.2414 76.2319 38.3457 75.2311 38.3626C56.0465 38.7851 36.8618 38.9541 17.6941 38.8696C12.283 38.8527 6.855 38.802 1.44394 38.7513C0.443147 38.7344 0.646698 40.2892 0.884174 40.83C1.22343 41.7088 1.98674 42.5538 3.0045 42.5707Z" fill="url(#paint1_linear)"/>
<path d="M20.6286 39.7822C20.6795 37.8049 20.7134 35.8107 20.7643 33.8335C20.3572 34.1884 19.9501 34.5433 19.543 34.8981C20.5608 35.1009 21.5785 35.253 22.6302 35.3544C23.6479 35.4389 24.53 35.4389 25.1237 34.4926C26.2263 32.7181 26.9048 30.6056 26.328 28.5438C26.0227 27.4284 25.3951 26.3975 24.4961 25.654C24.2247 25.4174 23.8176 25.147 23.614 25.0287C23.5631 24.9949 23.4953 24.9442 23.4444 24.8935C22.9186 24.4372 23.1051 24.978 24.0042 26.4989C24.1568 26.3975 24.2925 26.1271 24.4282 25.9751C25.6665 24.5217 27.1422 23.3556 28.7876 22.4092C28.4144 22.3754 28.0413 22.3585 27.6681 22.3247C28.5501 22.8993 29.3474 23.5415 30.1616 24.2006C30.857 24.7583 31.2981 24.9104 32.1632 24.7076C32.7229 24.5724 33.2657 24.4541 33.8255 24.3189C34.8602 24.0823 35.6744 23.7105 35.9289 22.5782C36.1833 21.429 36.1663 20.1615 36.2511 18.9954C35.9628 19.3672 35.6914 19.7221 35.403 20.0939C37.9304 19.8911 40.4748 19.8404 43.0192 19.9249C42.4086 19.4855 41.7809 19.063 41.1703 18.6236C41.0346 17.9307 40.9837 17.7955 40.9837 18.2349C40.9667 18.4039 40.9498 18.556 40.9158 18.725C40.8819 18.9785 40.831 19.2151 40.8141 19.4686C40.7632 20.1953 40.8989 20.922 41.1703 21.598C41.7301 22.9838 42.9005 24.0654 44.2575 24.64C45.5806 25.1977 47.0733 25.5188 48.4472 24.9442C49.6855 24.4203 50.381 23.2542 50.4658 21.9529C49.923 22.2571 49.3971 22.5613 48.8543 22.8655C51.0425 23.8964 53.0102 25.2991 54.6216 27.1073C54.5538 26.1271 54.4689 25.147 54.4011 24.1668C53.6717 24.7583 52.9254 25.3329 52.196 25.9244C51.4666 26.5158 50.7372 27.0059 50.6015 28.003C50.364 29.6592 51.263 31.8731 52.3317 33.1237C52.9084 33.8166 53.7226 34.4081 54.6386 34.5771C55.5376 34.746 56.4536 34.4757 57.3526 34.425C57.7766 34.3912 58.0311 35.1009 57.183 33.7828C56.5553 32.8026 56.725 32.9716 56.725 33.6307C56.725 34.1208 56.725 34.594 56.725 35.084C56.725 36.098 56.725 37.1289 56.725 38.1429C56.725 39.14 57.3017 40.2554 58.2007 40.7455C58.981 41.168 59.8122 40.7793 59.8122 39.8329C59.8122 38.0753 59.897 36.2839 59.8122 34.5264C59.6934 32.5153 58.2855 30.6901 56.1822 30.5549C55.8429 30.538 55.5206 30.5549 55.1814 30.6056C54.9609 30.6394 54.1467 30.6225 53.994 30.7577C53.9601 30.7915 53.9092 30.8929 53.9601 30.8591C53.8922 30.9098 54.2654 31.1126 54.011 30.9267C53.8413 30.8084 54.0449 31.0281 53.9601 30.8422C53.9092 30.707 53.8583 30.5549 53.8074 30.4197C53.7056 30.0986 53.977 30.707 53.7396 30.1662C53.553 29.7606 53.8244 30.0648 53.6039 30.2169C53.8413 30.0648 54.0788 29.7775 54.2993 29.6085C55.0287 29.017 55.7751 28.4424 56.5045 27.8509C57.4035 27.1242 56.9455 25.6371 56.2839 24.9104C54.2315 22.612 51.8058 20.7023 49.007 19.3841C48.1758 18.9954 47.4464 19.3334 47.3955 20.2967C47.3616 20.9051 46.5983 21.2769 46.0725 21.3614C45.2243 21.4966 44.5458 21.1586 43.7825 20.8544C43.8164 20.8713 43.579 20.7361 43.5959 20.7192C43.6468 20.6854 43.8673 21.26 43.9013 21.2938C43.9352 21.4797 43.9352 21.4797 43.9352 21.3107C43.9352 21.1924 43.9521 21.0572 43.9691 20.9389C43.9861 20.7699 44.02 20.6178 44.037 20.4488C44.1896 19.3503 44.003 18.3532 43.4772 17.3731C43.104 16.6802 42.4425 16.1056 41.6283 16.0718C39.0839 15.9873 36.5565 16.0549 34.0121 16.2408C33.4354 16.2915 33.2148 16.8492 33.164 17.3393C33.1131 17.9138 33.0791 18.4884 33.0283 19.063C33.0113 19.2996 33.0791 20.1108 32.9265 20.2967C32.7569 20.4995 32.1971 20.5164 31.9596 20.5671C31.349 20.7023 30.7553 20.8544 30.1446 20.9896C30.5348 21.1417 30.9249 21.2938 31.315 21.4459C30.2125 20.4826 29.042 19.6376 27.8207 18.8433C27.5154 18.6574 27.0235 18.5729 26.7012 18.7588C25.1407 19.6545 23.6988 20.7699 22.4606 22.0712C21.799 22.7641 21.0187 23.5246 20.9509 24.5217C20.8661 25.6371 21.3919 26.7017 22.1383 27.496C22.3927 27.7664 22.6641 27.9861 22.9694 28.2058C23.1221 28.3072 23.4105 28.5438 23.5292 28.5945C23.4783 28.5607 23.4953 28.5776 23.5971 28.6452C23.7667 28.7804 23.7158 28.7128 23.4614 28.4255C23.4614 28.4255 23.4274 28.341 23.4444 28.3241C23.5122 28.2903 23.4783 28.679 23.4783 28.7297C23.4614 29.1522 23.3087 29.5747 23.156 29.9634C23.0034 30.3521 22.8168 30.7408 22.6302 31.1126C22.4097 31.5182 22.3758 31.5858 21.9178 31.552C20.9 31.4675 19.8992 31.3154 18.8984 31.1126C18.186 30.9605 17.6941 31.4844 17.6771 32.1773C17.6262 34.1546 17.5923 36.1487 17.5414 38.126C17.5245 39.1231 18.1181 40.2554 19.0172 40.7286C19.8144 41.1173 20.5947 40.7286 20.6286 39.7822Z" fill="url(#paint2_linear)"/>
<path d="M47.1242 38.7006C48.1589 36.1487 47.9384 33.2589 46.1573 31.0957C44.4101 28.9832 41.8318 28.172 39.1517 28.2734C35.8949 28.3917 33.164 30.1155 31.349 32.7688C29.9241 34.8643 29.517 37.7711 31.1115 39.8836C31.9935 41.0666 35.6914 39.1062 34.9789 38.1598C33.8255 36.6219 33.7407 34.6446 34.6227 32.9547C34.9959 32.228 35.5048 31.6027 36.1154 31.0619C36.2851 30.9098 36.4377 30.7746 36.6413 30.6732C36.3868 30.8084 36.4038 30.7408 36.6582 30.7577C37.1841 30.7746 37.7099 30.707 38.2358 30.7577C42.3068 31.1464 44.9021 35.5234 43.3754 39.2921C43.0192 40.1371 43.9522 40.2892 44.6137 40.1878C45.4279 40.0695 46.7849 39.5456 47.1242 38.7006Z" fill="url(#paint3_linear)"/>
<path d="M19.8653 61.9209C33.0113 62.0561 46.1743 62.0223 59.3202 61.7857C60.355 61.7688 61.3388 61.1266 61.2879 59.9943C61.237 58.9635 60.2023 57.9157 59.1506 57.9326C46.0046 58.1692 32.8417 58.203 19.6957 58.0678C18.661 58.0509 17.6771 58.7438 17.728 59.8591C17.7619 60.9238 18.7967 61.904 19.8653 61.9209Z" fill="url(#paint4_linear)"/>
<path d="M30.5687 49.5334C28.7028 52.1359 27.4815 55.1103 26.9726 58.2706C26.9387 58.5072 30.9927 58.5579 31.1454 57.5608C31.6373 54.485 32.8077 51.612 34.6227 49.0771C34.962 48.6039 33.2148 48.7729 33.0791 48.7898C32.4685 48.8574 30.9758 48.9588 30.5687 49.5334Z" fill="url(#paint5_linear)"/>
<path d="M44.919 49.77C46.7849 52.8964 47.9214 56.3947 49.7364 59.555C49.923 59.8929 51.5514 59.5888 51.8737 59.5719C52.0263 59.555 54.011 59.2339 53.9601 59.1494C52.1451 55.9891 51.0086 52.4908 49.1427 49.3644C48.9391 49.0264 47.3277 49.3306 47.0054 49.3475C46.8527 49.3644 44.8681 49.7024 44.919 49.77Z" fill="url(#paint6_linear)"/>
<defs>
<linearGradient id="paint0_linear" x1="-25.0591" y1="25.7538" x2="94.516" y2="45.9308" gradientUnits="userSpaceOnUse">
<stop stop-color="#DC6D3E"/>
<stop offset="0.0001" stop-color="#ED9E40"/>
<stop offset="1" stop-color="#CC1276"/>
</linearGradient>
<linearGradient id="paint1_linear" x1="-25.0591" y1="25.7538" x2="94.516" y2="45.9308" gradientUnits="userSpaceOnUse">
<stop stop-color="#DC6D3E"/>
<stop offset="0.0001" stop-color="#ED9E40"/>
<stop offset="1" stop-color="#CC1276"/>
</linearGradient>
<linearGradient id="paint2_linear" x1="-25.0591" y1="25.7538" x2="94.516" y2="45.9308" gradientUnits="userSpaceOnUse">
<stop stop-color="#DC6D3E"/>
<stop offset="0.0001" stop-color="#ED9E40"/>
<stop offset="1" stop-color="#CC1276"/>
</linearGradient>
<linearGradient id="paint3_linear" x1="-25.0591" y1="25.7538" x2="94.516" y2="45.9308" gradientUnits="userSpaceOnUse">
<stop stop-color="#DC6D3E"/>
<stop offset="0.0001" stop-color="#ED9E40"/>
<stop offset="1" stop-color="#CC1276"/>
</linearGradient>
<linearGradient id="paint4_linear" x1="-25.0591" y1="25.7538" x2="94.516" y2="45.9308" gradientUnits="userSpaceOnUse">
<stop stop-color="#DC6D3E"/>
<stop offset="0.0001" stop-color="#ED9E40"/>
<stop offset="1" stop-color="#CC1276"/>
</linearGradient>
<linearGradient id="paint5_linear" x1="-25.0591" y1="25.7538" x2="94.516" y2="45.9308" gradientUnits="userSpaceOnUse">
<stop stop-color="#DC6D3E"/>
<stop offset="0.0001" stop-color="#ED9E40"/>
<stop offset="1" stop-color="#CC1276"/>
</linearGradient>
<linearGradient id="paint6_linear" x1="-25.0591" y1="25.7538" x2="94.516" y2="45.9308" gradientUnits="userSpaceOnUse">
<stop stop-color="#DC6D3E"/>
<stop offset="0.0001" stop-color="#ED9E40"/>
<stop offset="1" stop-color="#CC1276"/>
</linearGradient>
</defs>
</svg>
