<svg width="91" height="53" viewBox="0 0 91 53" fill="none" xmlns="http://www.w3.org/2000/svg">
<g clip-path="url(#clip0)">
<path d="M-0.00087643 1.76088C0.572763 8.37093 0.90304 14.9981 0.972571 21.6423C1.00734 24.8704 1.07687 28.1328 0.798742 31.3439C0.72921 32.0783 0.642295 32.8128 0.520614 33.5472C0.416316 34.2475 0.138188 35.0503 0.20772 35.7506C0.364167 37.544 3.0933 37.2707 4.37964 37.3049C6.01364 37.3561 7.63026 37.3732 9.26426 37.3219C10.9504 37.2878 12.9842 37.3903 14.3227 36.1776C15.3657 35.2211 15.8177 33.4276 16.287 32.1295C16.8085 30.6948 17.2604 29.2259 17.6602 27.7399C19.4333 21.3861 20.9978 14.981 22.6666 8.61006C23.0142 7.26072 23.4488 5.70641 23.0142 4.32292C22.4927 2.68321 20.9978 1.93168 19.3812 1.60716C17.6602 1.24847 15.835 1.21431 14.0794 1.04351C12.1151 0.872707 10.1856 0.684824 8.23867 0.496941C7.2826 0.39446 5.97888 0.616503 5.40524 1.4876C4.86636 2.30745 5.70075 2.97358 6.50037 3.0419C9.62931 3.34934 12.7582 3.65679 15.8872 3.96423C16.8954 4.06671 18.2339 3.99839 18.6858 5.07445C19.1204 6.11634 18.738 7.38028 18.4773 8.40509C16.9302 14.3832 15.4005 20.3613 13.8012 26.3393C13.384 27.9278 12.9321 29.4992 12.4106 31.0535C12.1498 31.8563 11.8543 32.659 11.5414 33.4447C11.4024 33.7863 11.2633 34.1279 11.1242 34.4695C11.0547 34.6233 10.9852 34.777 10.9156 34.9307C10.8113 35.1698 10.6375 35.1015 10.9156 34.9649C11.2633 34.8453 11.611 34.7087 11.9586 34.5891C10.8809 34.8795 9.14258 34.7428 7.87362 34.7428C7.14354 34.7428 6.41345 34.7257 5.68336 34.7087C5.35309 34.6916 5.00543 34.6916 4.67515 34.6745C4.44917 34.6574 4.22319 34.6574 3.99721 34.6403C3.51049 34.6062 3.54526 34.6233 4.10151 34.7257C4.24058 34.9136 4.37964 35.1015 4.5187 35.3065C4.32749 34.8453 4.623 34.0425 4.70992 33.5814C4.81421 32.9665 4.90113 32.3345 4.97066 31.7196C5.10973 30.3361 5.16187 28.9355 5.19664 27.535C5.26617 24.5801 5.24879 21.6081 5.19664 18.6532C5.09234 12.7435 4.77945 6.83371 4.27534 0.958108C4.11889 -0.715756 -0.157323 -0.0154658 -0.00087643 1.76088Z" fill="url(#paint0_linear)"/>
<path d="M65.4638 10.6255C69.1316 9.75441 72.8168 8.9858 76.5368 8.35383C78.362 8.04639 80.2046 7.75602 82.0298 7.49982C82.9163 7.38026 83.8203 7.26069 84.7068 7.14113C85.2109 7.07281 85.715 7.02157 86.2191 6.95325C86.4451 6.91909 86.6711 6.90201 86.897 6.88493C87.0013 6.86785 87.123 6.86785 87.2273 6.85077C87.6097 6.81661 87.4533 6.78245 86.7406 6.73121C86.4277 6.54332 86.1148 6.33836 85.8019 6.15048C85.489 5.84303 85.5759 5.84303 85.6107 6.28712C85.6281 6.5604 85.6628 6.85077 85.6976 7.12405C85.7671 7.73894 85.8193 8.35383 85.8714 8.96872C85.9931 10.1985 86.0974 11.4454 86.1843 12.6751C86.3582 15.0322 86.5146 17.4064 86.6189 19.7634C86.8449 24.6142 86.897 29.465 86.7927 34.3158C86.7754 34.8795 86.7754 35.4431 86.758 36.0068C86.758 36.28 86.7927 36.8095 86.6711 36.9803C86.5494 37.1511 85.6802 37.1682 85.4195 37.2024C84.8458 37.2878 84.2548 37.339 83.6638 37.3561C82.4991 37.3902 81.3345 37.3732 80.1698 37.3219C79.8048 37.3048 79.4223 37.3048 79.0747 37.2365C78.9878 37.2194 78.9009 37.1853 78.8139 37.1682C78.8313 37.1682 78.8487 37.1682 78.8661 37.1682C79.0747 37.3561 78.6575 36.7412 78.7792 36.9803C77.8057 35.1698 77.1799 33.1544 76.5542 31.1901C75.8762 29.0551 75.3026 26.903 74.7811 24.7338C73.7207 20.31 72.5908 15.7837 69.6705 12.1456C69.0273 11.3429 67.8974 10.7963 66.8371 10.9671C65.9505 11.1208 65.4812 11.9578 66.0896 12.7264C69.8791 17.4405 70.4353 23.8456 72.0867 29.4479C72.5735 31.0706 73.1123 32.6932 73.686 34.2816C74.2075 35.7164 74.7289 37.2024 75.8241 38.3297C78.1882 40.7721 82.2732 40.4818 85.4021 40.3281C86.8623 40.2597 89.1047 40.2939 90.2693 39.2691C90.8777 38.7225 90.8778 37.8856 90.8951 37.134C90.9125 36.2288 90.9473 35.3235 90.9647 34.4354C91.0168 30.8827 90.9994 27.33 90.8777 23.7773C90.7734 20.2758 90.5822 16.7915 90.3041 13.3071C90.165 11.5137 89.9912 9.70317 89.8174 7.90974C89.7478 7.26069 89.7479 6.52624 89.5045 5.91135C89.1047 4.88654 87.9922 4.16917 86.9318 3.96421C85.9584 3.75924 84.9501 3.94713 83.9767 4.06669C82.9685 4.18625 81.9603 4.30581 80.9694 4.44245C79.0225 4.69866 77.0757 4.98902 75.1288 5.31355C71.2002 5.97968 67.2716 6.76537 63.3952 7.6877C62.4913 7.90974 62.0915 8.64419 62.6478 9.44697C63.1692 10.2156 64.4904 10.8475 65.4638 10.6255Z" fill="url(#paint1_linear)"/>
<path d="M23.6229 10.3179C25.8306 10.2496 28.0556 10.1984 30.2633 10.1301C32.3492 10.0617 34.4526 9.80553 36.5385 10.0276C35.5825 9.44684 34.6264 8.88319 33.6703 8.30247C33.3574 9.44684 32.523 10.3863 31.793 11.3257C31.1845 12.1284 30.6283 12.9825 30.0894 13.8365C28.9943 15.5957 27.847 17.7649 28.3337 19.9C28.9943 22.7524 32.4014 24.1358 35.061 24.4604C36.5211 24.6312 38.0335 24.5116 39.3893 23.8967C40.5714 23.3502 41.1798 22.5986 41.7186 21.4713C42.0837 20.7198 42.6052 20.8906 43.3526 20.9077C44.187 20.9418 45.004 20.9077 45.8384 20.771C46.8293 20.6002 47.6463 19.9341 48.6197 19.7462C48.3416 19.7633 48.0634 19.7804 47.7853 19.7804C46.1861 19.695 45.6124 18.6531 46.5164 19.6608C46.725 19.9 46.9335 20.122 47.1595 20.344C47.8548 21.0102 48.6718 21.5738 49.4367 22.1545C51.0707 23.3672 52.7742 24.5116 54.4778 25.6389C57.5546 27.6885 60.6835 29.704 63.3431 32.3002C65.4291 34.3328 68.2451 37.3901 67.15 40.5158C66.7502 41.6773 65.8115 42.7192 64.473 42.7021C63.2214 42.685 62.022 42.0018 61.0138 41.2503C59.5188 40.14 58.4411 38.6199 57.2417 37.2193C55.8336 35.5625 54.3387 34.0765 52.5483 32.8297C51.8529 32.3344 50.4797 31.8732 49.6279 32.1806C48.7066 32.5052 49.541 33.2055 49.993 33.5129C52.6352 35.3405 54.2518 38.1929 56.5116 40.3792C58.98 42.7704 62.5435 44.4955 66.0027 44.7688C67.4107 44.8713 68.9752 44.7517 70.0529 43.744C70.8699 42.9924 71.3567 41.9505 71.4957 40.8745C71.8781 37.8 69.4271 35.016 67.4281 32.9493C62.5956 27.9789 56.2335 24.7678 50.7926 20.4978C50.4797 20.2586 50.1494 19.8316 49.767 19.4388C49.089 18.7556 48.3068 18.2773 47.3855 17.9699C46.6207 17.7308 45.7689 17.5941 45.004 17.8674C44.4304 18.0724 43.9089 18.3798 43.3526 18.5848C41.8577 19.1313 40.2063 18.414 38.7288 18.9776C38.0335 19.2338 37.7379 19.7975 37.4598 20.4294C37.1295 21.1639 36.5733 21.6763 35.8258 22.035C35.2348 22.3253 34.1049 22.667 33.4617 22.3937C33.1662 22.2741 32.8533 21.8129 32.6969 21.5226C32.0537 20.2586 32.4535 18.7727 32.975 17.56C33.5486 16.2106 34.3656 14.9638 35.1826 13.7511C36.0692 12.453 37.3555 11.2403 37.7901 9.70305C38.0856 8.66115 35.5651 8.04626 34.9219 7.97794C32.6273 7.73882 30.3502 7.97794 28.0556 8.04626C25.7263 8.11458 23.4144 8.18291 21.085 8.23415C20.2506 8.25123 20.0942 8.84903 20.7026 9.36144C21.4675 9.99341 22.6495 10.3521 23.6229 10.3179Z" fill="url(#paint2_linear)"/>
<path d="M13.5929 31.7194C16.6523 36.331 20.7026 40.1228 25.17 43.4022C27.3602 45.0078 29.62 46.4938 31.932 47.9285C34.4004 49.4657 36.8861 50.9005 39.6674 51.8228C42.9876 52.9159 46.3946 53.2746 49.8538 52.7964C50.8794 52.6597 51.2619 51.5154 50.8273 50.6784C50.2884 49.6878 49.1064 49.2779 48.0286 49.4316C43.0571 50.1319 38.5375 48.1506 34.4351 45.5885C30.3327 43.0436 26.2477 40.3449 22.7364 37.0313C20.7373 35.1525 18.8947 33.1029 17.3824 30.8312C16.7914 29.943 15.6963 29.3281 14.5837 29.5843C13.6277 29.8235 13.0019 30.8483 13.5929 31.7194Z" fill="url(#paint3_linear)"/>
<path d="M36.3299 41.5064C37.4425 43.4365 38.9895 45.0249 40.6409 46.528C42.3618 48.0994 44.0828 49.6366 46.1513 50.7639C49.9235 52.8306 55.8337 53.2405 58.4933 49.2438C59.0843 48.3556 57.9196 47.2454 57.1895 46.9209C56.2335 46.4938 55.1384 46.5792 54.5473 47.4674C53.852 48.5093 52.3397 48.9022 51.1576 48.9192C49.6453 48.9363 48.2721 48.4068 47.0379 47.587C45.6994 46.7159 44.5347 45.6227 43.3701 44.5467C42.1359 43.4023 40.9364 42.1896 40.0847 40.7207C39.5632 39.8155 38.3464 39.2347 37.286 39.4568C36.2952 39.6788 35.8258 40.6353 36.3299 41.5064Z" fill="url(#paint4_linear)"/>
<path d="M44.2566 38.2097C45.7168 40.2765 47.4377 42.1724 49.3672 43.8462C51.1751 45.4005 53.0872 46.989 55.2079 48.0992C57.4677 49.2778 59.9709 49.8926 62.4219 48.9191C64.2297 48.2017 65.9332 46.9036 66.9762 45.2639C67.5325 44.3928 66.2287 43.3338 65.5334 43.0435C64.5773 42.6677 63.517 42.7702 62.9433 43.6583C63.0476 43.4875 62.8217 43.795 62.8043 43.8121C62.6826 43.9316 62.5783 44.0683 62.4566 44.1878C62.1959 44.4611 61.9004 44.7002 61.6049 44.9394C61.0486 45.3664 60.3359 45.7763 59.7449 46.0154C59.7101 46.0325 59.4667 46.1008 59.3624 46.135C59.3103 46.1521 58.8236 46.2204 59.0669 46.2033C59.3451 46.1862 58.7714 46.1862 58.8931 46.2033C58.6671 46.1862 58.4585 46.135 58.2326 46.0837C57.5894 45.93 56.8419 45.5201 56.1814 45.0931C53.0177 43.0776 50.0799 40.396 47.907 37.3386C47.2986 36.4846 46.1166 35.9551 45.0562 36.2113C44.1523 36.4334 43.683 37.3899 44.2566 38.2097Z" fill="url(#paint5_linear)"/>
<path d="M36.9731 11.4619C38.7461 10.2321 40.6235 9.03647 42.7616 8.5753C44.8997 8.09706 47.1247 8.21662 49.2802 8.55822C54.1648 9.34391 58.9799 10.6933 63.7776 11.9401C64.5946 12.1451 66.0027 11.9743 66.2113 11.0007C66.4372 9.97588 65.2204 9.32683 64.4034 9.12187C59.1711 7.77253 53.8867 6.23531 48.5154 5.5521C45.9253 5.22758 43.2483 5.15926 40.693 5.79122C38.0856 6.44027 35.791 7.73837 33.6008 9.24143C32.749 9.82216 33.2183 10.8641 33.9137 11.3423C34.7828 11.8889 36.1039 12.0597 36.9731 11.4619Z" fill="url(#paint6_linear)"/>
<path d="M71.6695 38.5687C71.6174 38.9615 71.1828 39.0469 71.7738 38.7907C72.0519 38.6712 72.3301 38.5687 72.5908 38.4491C73.3904 38.0905 74.1901 37.7659 75.0418 37.5097C75.8936 37.2535 76.6584 36.5191 76.1022 35.6138C75.5807 34.7769 74.1727 34.4011 73.234 34.6915C71.9476 35.0843 70.7308 35.5967 69.4793 36.1262C68.6101 36.502 67.4976 36.9119 67.3585 37.988C67.1152 39.9522 71.4262 40.5329 71.6695 38.5687Z" fill="url(#paint7_linear)"/>
</g>
<defs>
<linearGradient id="paint0_linear" x1="-28.8698" y1="22.0204" x2="105.823" y2="52.6466" gradientUnits="userSpaceOnUse">
<stop stop-color="#DC6D3E"/>
<stop offset="0.0001" stop-color="#ED9E40"/>
<stop offset="1" stop-color="#CC1276"/>
</linearGradient>
<linearGradient id="paint1_linear" x1="-28.8698" y1="22.0204" x2="105.823" y2="52.6466" gradientUnits="userSpaceOnUse">
<stop stop-color="#DC6D3E"/>
<stop offset="0.0001" stop-color="#ED9E40"/>
<stop offset="1" stop-color="#CC1276"/>
</linearGradient>
<linearGradient id="paint2_linear" x1="-28.8698" y1="22.0204" x2="105.823" y2="52.6466" gradientUnits="userSpaceOnUse">
<stop stop-color="#DC6D3E"/>
<stop offset="0.0001" stop-color="#ED9E40"/>
<stop offset="1" stop-color="#CC1276"/>
</linearGradient>
<linearGradient id="paint3_linear" x1="-28.8698" y1="22.0204" x2="105.823" y2="52.6466" gradientUnits="userSpaceOnUse">
<stop stop-color="#DC6D3E"/>
<stop offset="0.0001" stop-color="#ED9E40"/>
<stop offset="1" stop-color="#CC1276"/>
</linearGradient>
<linearGradient id="paint4_linear" x1="-28.8698" y1="22.0204" x2="105.823" y2="52.6466" gradientUnits="userSpaceOnUse">
<stop stop-color="#DC6D3E"/>
<stop offset="0.0001" stop-color="#ED9E40"/>
<stop offset="1" stop-color="#CC1276"/>
</linearGradient>
<linearGradient id="paint5_linear" x1="-28.8698" y1="22.0204" x2="105.823" y2="52.6466" gradientUnits="userSpaceOnUse">
<stop stop-color="#DC6D3E"/>
<stop offset="0.0001" stop-color="#ED9E40"/>
<stop offset="1" stop-color="#CC1276"/>
</linearGradient>
<linearGradient id="paint6_linear" x1="-28.8698" y1="22.0204" x2="105.823" y2="52.6466" gradientUnits="userSpaceOnUse">
<stop stop-color="#DC6D3E"/>
<stop offset="0.0001" stop-color="#ED9E40"/>
<stop offset="1" stop-color="#CC1276"/>
</linearGradient>
<linearGradient id="paint7_linear" x1="-28.8698" y1="22.0204" x2="105.823" y2="52.6466" gradientUnits="userSpaceOnUse">
<stop stop-color="#DC6D3E"/>
<stop offset="0.0001" stop-color="#ED9E40"/>
<stop offset="1" stop-color="#CC1276"/>
</linearGradient>
<clipPath id="clip0">
<rect width="91" height="53" fill="white"/>
</clipPath>
</defs>
</svg>
