<svg width="55" height="56" viewBox="0 0 55 56" fill="none" xmlns="http://www.w3.org/2000/svg">
<path d="M54.6709 21.0278C54.5419 19.8588 54.3268 18.6898 53.9828 17.5625C53.6387 16.4353 53.2086 15.308 52.6925 14.2225C52.1764 13.1788 51.4453 12.0098 50.8862 11.1748L50.2841 10.4233C50.1121 10.1728 49.897 9.96401 49.725 9.71351C49.3379 9.25426 48.9079 8.83676 48.4778 8.37751L48.4348 8.33576C47.9617 7.79301 47.4026 7.25026 46.7575 6.62401C46.3704 6.24826 45.8973 5.91426 45.4673 5.49676C44.9942 5.12101 44.4781 4.74526 43.919 4.41125C42.8438 3.7015 41.5966 2.95 40.1773 2.3655C37.3819 1.113 33.9843 0.194499 30.1566 0.027499C26.3289 -0.139501 22.1142 0.445 17.9855 2.0315C13.8567 3.65975 9.81404 6.24826 6.58848 9.92226C5.77134 10.8408 5.04021 11.801 4.35209 12.8448C3.66397 13.8885 3.01886 14.974 2.50277 16.1013C1.42758 18.3558 0.610437 20.819 0.266377 23.4075C0.0943468 24.7018 -0.0346718 25.996 0.00833568 27.2903C0.0513432 28.5845 0.180366 29.9205 0.438411 31.2148C0.696456 32.509 1.04052 33.8033 1.5136 35.0558C1.98668 36.2665 2.63179 37.6443 3.2339 38.6046L3.79299 39.4813C3.96502 39.7736 4.18006 40.0241 4.35209 40.3163C4.73916 40.8591 5.16924 41.4018 5.59931 41.9028C6.45946 42.9048 7.44863 43.8651 8.48081 44.7418C9.51299 45.6186 10.6312 46.3701 11.7924 47.0381C12.9536 47.7061 14.1578 48.2906 15.405 48.7916C17.8564 49.7518 20.4799 50.3363 23.0174 50.5451C24.3076 50.6703 25.5978 50.6703 26.845 50.5868C28.0922 50.5033 29.3395 50.3781 30.5437 50.1693C30.1996 52.0898 29.8986 54.0103 29.5545 55.9308C29.5975 56.0143 29.6835 56.0143 29.7265 55.9726C30.3286 53.9686 30.8877 51.9646 31.4468 49.9606C32.35 49.7518 33.2531 49.5431 34.1133 49.2508C34.6724 49.0838 35.2315 48.8751 35.7906 48.6663C36.3497 48.4576 36.9088 48.2488 37.4249 47.9983C37.941 47.7478 38.5001 47.4973 39.0161 47.2051C39.5322 46.9546 40.0053 46.6623 40.4784 46.3701C40.9945 46.0778 41.4246 45.7438 41.8976 45.4516C42.3707 45.1176 42.8008 44.8253 43.2309 44.4913C46.0264 42.3203 48.3058 39.8153 49.9831 37.1851C50.0261 37.1016 50.1121 37.0181 50.1551 36.9346C51.4453 35.181 52.5205 33.2605 53.3376 31.1313C54.1118 29.0438 54.6279 26.7893 54.7569 24.4513C54.7999 23.3658 54.7999 22.1968 54.6709 21.0278ZM21.211 45.2428L20.3509 40.2746C20.2649 39.8571 20.2219 39.4396 20.1358 39.0221L19.8778 37.7696C19.7918 37.4356 19.7058 37.0598 19.6628 36.7258C21.039 36.3501 22.4152 35.9325 23.7485 35.4315C23.8775 35.7238 24.0495 36.016 24.2646 36.3083C24.6516 36.8511 25.1677 37.3521 25.7698 37.7278C26.3719 38.1036 27.0601 38.3123 27.7052 38.3958C28.0492 38.4376 28.3503 38.4793 28.6943 38.4376C28.8664 38.4376 28.9954 38.4376 29.1674 38.3958L29.4255 38.3541C29.5115 38.3541 29.5545 38.3123 29.6835 38.3123C29.8986 38.2705 30.0706 38.2288 30.2426 38.1871L30.8447 38.0618C31.2318 37.9783 31.6189 37.8531 32.0059 37.7278C32.307 37.6443 32.608 37.5191 32.9091 37.4356C32.651 38.5211 32.436 39.6066 32.221 40.6921C31.8769 42.6126 31.5328 44.4913 31.1888 46.4118C30.8017 46.4953 30.4146 46.5371 30.0276 46.5788C26.888 46.9546 23.8775 46.6623 21.3831 45.9108C21.2971 45.7021 21.254 45.4933 21.211 45.2428ZM11.1903 41.6941C10.3731 40.9426 9.556 40.1493 8.86788 39.3143C8.52382 38.8968 8.17976 38.4376 7.8357 37.9783C7.66367 37.7696 7.49164 37.5191 7.36262 37.2686L6.93254 36.6005C6.28743 35.4733 5.85735 34.6383 5.42728 33.5945C5.04021 32.5508 4.73916 31.507 4.48111 30.4215C4.00803 28.2505 3.92201 26.0378 4.13705 23.8668C4.35209 21.6958 4.91119 19.5248 5.72833 17.479C6.1154 16.4353 6.63149 15.475 7.14758 14.5148C7.70668 13.5545 8.30878 12.636 8.95389 11.801C10.2871 10.0893 11.7494 8.50276 13.4267 7.16676C13.8568 6.83276 14.2438 6.49876 14.7169 6.20651C15.147 5.87251 15.577 5.58026 16.0501 5.32976L16.3512 5.12101L16.6952 4.91226C16.9103 4.78701 17.1683 4.62001 17.3834 4.49476C17.8564 4.24426 18.2865 3.99375 18.7596 3.785C20.6089 2.8665 22.5443 2.1985 24.4366 1.6975C26.3719 1.23825 28.2643 1.0295 30.1136 0.946C33.8122 0.8625 37.2098 1.5305 40.0053 2.65775C42.8008 3.785 45.0372 5.24626 46.6285 6.70751C47.1446 7.16676 47.5746 7.58426 48.0047 8.00176C47.2736 7.33376 46.4564 6.70751 45.6393 6.12301C44.6501 5.45501 43.5749 4.82876 42.4997 4.32775C41.4246 3.82675 40.2634 3.40925 39.1452 3.07525C36.8658 2.40725 34.5004 2.115 32.221 2.115C29.8986 2.15675 27.6622 2.49075 25.5548 3.07525C23.4474 3.65975 21.4261 4.5365 19.6198 5.58026C19.1897 5.83076 18.7166 6.08126 18.2865 6.41526C17.8134 6.70751 17.4264 6.99976 17.0393 7.25026C16.6092 7.54251 16.2222 7.87651 15.8351 8.16876C15.448 8.50276 15.104 8.79501 14.7169 9.12901C11.8354 11.801 9.81404 14.8905 8.52382 17.9383C7.2766 20.986 6.76051 23.992 6.76051 26.664C6.76051 28 6.88954 29.2108 7.10457 30.338C7.19059 30.9225 7.31961 31.4235 7.44863 31.9245C7.49164 31.9245 7.53465 31.9245 7.57765 31.9245C7.23359 30.3798 7.01856 28.6263 7.10457 26.664C7.2336 24.0755 7.92171 21.153 9.38397 18.314C10.1151 16.8945 11.0183 15.475 12.0934 14.1808C13.2116 12.8865 14.5019 11.634 15.9211 10.5485C16.2652 10.2563 16.6522 10.0058 17.0393 9.75526C17.4264 9.50476 17.8134 9.25426 18.2005 9.00376C18.6306 8.75326 19.0607 8.50276 19.4477 8.29401C19.8348 8.08526 20.2649 7.87651 20.6949 7.66776C22.4152 6.87451 24.2646 6.33176 26.1999 5.91426C30.0276 5.16276 34.1563 5.41326 37.8979 6.70751C39.7903 7.33376 41.5536 8.25226 43.1449 9.42126C43.919 10.0058 44.6931 10.632 45.3813 11.3C45.7253 11.6758 46.0694 12.0098 46.3704 12.3855C46.5425 12.5525 46.6715 12.7613 46.8435 12.97L47.2736 13.5128C47.9617 14.473 48.3488 15.141 48.8219 16.0178C49.2519 16.8945 49.596 17.7713 49.897 18.6898C50.4561 20.5268 50.7572 22.4473 50.7572 24.3678C50.7572 26.2883 50.4561 28.2088 49.897 30.0458C49.381 31.8828 48.5638 33.678 47.5746 35.3063C46.5425 36.9346 45.3813 38.4376 44.048 39.7318C43.704 40.0658 43.3599 40.3998 43.0158 40.6921C42.6718 41.0261 42.2847 41.2766 41.9407 41.5688L41.6826 41.7776L41.3816 41.9863L40.7794 42.4038C40.3924 42.6543 40.0483 42.9048 39.6613 43.1553C38.113 44.1156 36.4787 44.8671 34.8444 45.4516C34.0273 45.7438 33.2101 45.9526 32.393 46.1196C32.8661 44.4078 33.2961 42.6961 33.7692 41.0261C34.1563 39.6901 34.5434 38.3123 34.9304 36.9763C34.9734 36.8093 35.0164 36.6423 35.1025 36.4753C36.1776 35.9743 37.2528 35.348 38.242 34.6383C38.8871 34.179 39.5322 33.6363 40.0913 33.0935C40.6934 32.509 41.2095 31.9245 41.6826 31.2565C42.6718 29.9205 43.3599 28.3758 43.747 26.7893C44.091 25.2863 44.3061 23.7833 44.3491 22.2385C44.3921 21.487 44.3491 20.6938 44.2631 19.9005C44.2201 19.483 44.134 19.0655 44.048 18.6063C44.005 18.3975 43.919 18.147 43.79 17.8965C43.6609 17.646 43.5319 17.3538 43.2309 17.0198C43.1019 16.8528 42.8868 16.6858 42.6288 16.5188C42.3707 16.3518 41.9837 16.2683 41.6396 16.2265C40.9085 16.1848 40.4354 16.477 40.1773 16.644C39.5752 17.0615 39.3172 17.4373 39.0161 17.813C38.5001 18.5228 38.156 19.2325 37.8119 19.9005C37.1668 21.2783 36.6937 22.656 36.2207 24.0338C35.2745 26.7893 34.5434 29.5448 33.8552 32.342C33.8122 32.5925 33.7262 32.8013 33.6832 33.0518C33.2961 33.2188 32.9091 33.3858 32.522 33.5528C31.9199 33.8033 31.2748 34.012 30.6297 34.2208C30.3286 34.3043 29.9846 34.3878 29.6835 34.4713L29.2104 34.5965C29.0814 34.6383 28.8664 34.68 28.7804 34.68L28.6513 34.7218C28.7373 34.7218 28.6513 34.7218 28.6513 34.7218H28.5653C28.5223 34.7218 28.4793 34.7218 28.3933 34.7218C28.2643 34.7218 28.1782 34.7218 28.0922 34.7218C27.8772 34.68 27.7482 34.6383 27.6192 34.5548C27.4901 34.4713 27.4041 34.3878 27.2751 34.2208C27.1891 34.1373 27.1461 33.9703 27.0601 33.845C27.6192 33.511 28.2213 33.1353 28.7804 32.7595C29.5545 32.175 30.3286 31.4653 30.9737 30.5468C31.5758 29.67 32.0489 28.6263 32.264 27.5408C32.436 26.4553 32.393 25.3698 32.221 24.4095C32.1779 24.159 32.0919 23.9085 32.0489 23.658L32.0059 23.491L31.9629 23.324L31.8769 22.99C31.7479 22.5308 31.5758 22.0298 31.2748 21.5288C31.1458 21.2783 30.9737 20.986 30.6727 20.652C30.3716 20.3598 29.9416 19.9005 29.1244 19.6918C28.7373 19.6083 28.2643 19.6083 27.9202 19.6918C27.5331 19.7753 27.2751 19.9423 27.0601 20.0675C26.63 20.3598 26.3719 20.6103 26.1569 20.9025C25.7268 21.4035 25.4688 21.8628 25.2537 22.322C25.0387 22.7813 24.8237 23.1988 24.6516 23.6163C24.4796 24.0338 24.3076 24.493 24.1786 24.9105L24.1355 25.0775L24.0925 25.2863L24.0065 25.5785L23.8345 26.2048C23.7055 26.6223 23.6195 27.0815 23.5334 27.499C23.4474 27.9583 23.3614 28.3758 23.2754 28.835C23.1464 29.5865 23.0604 30.338 23.0174 31.1313C23.0174 31.1313 22.9743 31.6323 22.9743 32.0915C22.8453 32.1333 22.7163 32.2168 22.5873 32.2585C21.3831 32.7595 20.1358 33.177 18.8456 33.5945C18.5876 32.509 18.3295 31.4653 17.9855 30.3798C17.7274 29.5448 17.4694 28.7515 17.1683 27.9165C16.8673 27.0815 16.5662 26.2883 16.0501 25.4533C15.9211 25.2445 15.7921 25.0358 15.5771 24.7853C15.491 24.66 15.362 24.5348 15.19 24.4095C15.018 24.2843 14.8459 24.1173 14.4589 24.0338C14.2868 23.992 14.0718 23.9503 13.8137 23.992C13.5987 24.0338 13.3407 24.1173 13.2116 24.2425C12.8676 24.4513 12.7386 24.7018 12.6095 24.8688C12.3945 25.2445 12.3085 25.5368 12.2655 25.7873C12.1365 26.33 12.0934 26.7893 12.0934 27.2903C12.0934 27.7495 12.0934 28.2088 12.0934 28.668C12.1364 29.1273 12.1795 29.5865 12.2655 30.0458C12.3085 30.2545 12.3515 30.505 12.3945 30.7138L12.4375 30.8808V30.9643C12.4375 30.9643 12.3945 30.8808 12.4375 30.9225V30.9643V31.006L12.4805 31.34C12.6525 32.2168 12.8676 33.0518 13.1686 33.9285C13.2977 34.3878 13.4697 34.8053 13.7277 35.2645C13.9858 35.7238 14.2008 36.2248 14.8029 36.7676C15.104 37.0181 15.534 37.3521 16.2222 37.4356C16.3942 37.4773 16.5662 37.4773 16.7383 37.4356C16.8243 37.4356 16.9103 37.4356 16.9963 37.3938L17.1683 37.3521L17.4694 37.2686C17.6844 37.2268 17.8995 37.1433 18.1575 37.1016C18.5016 38.2288 18.8456 39.3561 19.1467 40.5251L20.5229 45.3681C20.5659 45.4933 20.6089 45.6603 20.6519 45.7856C18.9316 45.2428 17.4264 44.5331 16.1792 43.7398C16.1361 43.7816 16.0931 43.7816 16.0931 43.8233C16.5232 44.0738 16.9963 44.4078 17.4694 44.6583C18.4586 45.2011 19.5337 45.7021 20.738 46.1196C20.781 46.2866 20.824 46.4536 20.867 46.6206C19.4477 46.2866 18.0715 45.8273 16.7383 45.2428C14.8029 44.3661 12.8676 43.1553 11.1903 41.6941ZM36.8228 31.2983C37.0808 30.505 37.3388 29.7535 37.5969 28.9603C38.07 27.6243 38.5001 26.2883 39.0161 24.994C39.5322 23.6998 40.0483 22.4055 40.6934 21.2365C40.8225 20.986 40.9945 20.6938 41.1235 20.485C41.1665 21.0278 41.1665 21.5705 41.1235 22.155C41.0375 23.4493 40.8225 24.7853 40.4784 26.0378C40.1343 27.2068 39.6182 28.2923 38.8871 29.2525C38.328 30.004 37.5969 30.672 36.8228 31.2983ZM27.1031 29.67C27.1031 29.5865 27.1461 29.503 27.1461 29.4195C27.1891 29.0438 27.2751 28.668 27.3611 28.2923C27.4471 27.9165 27.5331 27.5408 27.6192 27.165L27.7912 26.5388L27.8772 26.2465L27.9632 26.0378C28.0922 25.662 28.2213 25.328 28.3503 24.9523C28.3933 24.7853 28.4793 24.66 28.5223 24.5348V24.5765V24.6183C28.5653 24.7853 28.6083 24.9523 28.6513 25.1193C28.7804 25.7873 28.8234 26.4135 28.7373 26.998C28.6513 27.5825 28.4363 28.1253 28.0922 28.6263C27.8342 28.9603 27.4901 29.336 27.1031 29.67ZM16.7813 34.2208C16.6952 34.1373 16.6092 34.012 16.5662 33.8868C16.3942 33.5945 16.2222 33.2605 16.0931 32.9265C15.7921 32.2168 15.534 31.4653 15.319 30.7138L15.147 30.0875C15.104 29.9205 15.061 29.7118 15.018 29.5448C14.9319 29.169 14.8889 28.7933 14.8459 28.4175C14.8029 28.1253 14.7599 27.833 14.7599 27.499C14.9749 27.8748 15.147 28.2505 15.319 28.668C15.6631 29.4195 15.9641 30.171 16.2222 30.9643C16.6092 31.9663 16.9533 33.01 17.2974 34.0538L16.7813 34.2208ZM16.9963 34.4295L16.9533 34.3878C16.9963 34.4295 16.9963 34.4295 16.9963 34.4295ZM13.8568 26.2048C13.8137 26.2048 13.8137 26.163 13.8568 26.2048C13.8137 26.163 13.8568 26.2048 13.8568 26.2048ZM21.4691 46.7458C21.4261 46.6206 21.4261 46.4536 21.3831 46.3283C22.8883 46.8293 24.5226 47.2051 26.3289 47.3721C24.6946 47.3303 23.0604 47.1216 21.4691 46.7458Z" fill="url(#paint0_linear)"/>
<defs>
<linearGradient id="paint0_linear" x1="-17.3773" y1="23.2615" x2="66.4955" y2="34.1272" gradientUnits="userSpaceOnUse">
<stop stop-color="#DC6D3E"/>
<stop offset="0.0001" stop-color="#ED9E40"/>
<stop offset="1" stop-color="#CC1276"/>
</linearGradient>
</defs>
</svg>
