<svg width="128" height="133" viewBox="0 0 128 133" fill="none" xmlns="http://www.w3.org/2000/svg">
<path d="M127.739 49.941C127.437 47.1646 126.935 44.3882 126.131 41.711C125.327 39.0338 124.322 36.3565 123.117 33.7785C121.911 31.2996 120.202 28.5232 118.896 26.5401L117.489 24.7553C117.087 24.1603 116.585 23.6645 116.183 23.0696C115.278 21.9789 114.274 20.9873 113.269 19.8966L113.168 19.7974C112.063 18.5084 110.757 17.2194 109.249 15.732C108.345 14.8396 107.24 14.0464 106.235 13.0548C105.129 12.1624 103.923 11.27 102.617 10.4767C100.105 8.79107 97.1908 7.00626 93.8747 5.61807C87.343 2.64338 79.4045 0.461936 70.4611 0.06531C61.5177 -0.331316 51.67 1.05687 42.0232 4.82482C32.3764 8.69192 22.9306 14.8396 15.394 23.5654C13.4848 25.7468 11.7765 28.0274 10.1687 30.5063C8.56089 32.9852 7.05358 35.5633 5.84773 38.2405C3.33555 43.595 1.42629 49.4452 0.622391 55.5929C0.220442 58.6667 -0.081011 61.7406 0.0194764 64.8144C0.119964 67.8883 0.421426 71.0613 1.02435 74.1351C1.62727 77.209 2.43117 80.2828 3.53653 83.2575C4.6419 86.1331 6.14921 89.4052 7.55603 91.6858L8.86235 93.7681C9.2643 94.4622 9.76674 95.0571 10.1687 95.7512C11.0731 97.0403 12.078 98.3293 13.0828 99.5192C15.0926 101.899 17.4038 104.18 19.8155 106.262C22.2272 108.344 24.8399 110.129 27.553 111.715C30.2662 113.302 33.0798 114.69 35.9939 115.88C41.7217 118.161 47.8515 119.549 53.7802 120.045C56.7948 120.342 59.8095 120.342 62.7236 120.144C65.6377 119.945 68.5519 119.648 71.3655 119.152C70.5616 123.713 69.8582 128.275 69.0543 132.836C69.1548 133.034 69.3558 133.034 69.4562 132.935C70.8631 128.175 72.1694 123.416 73.4757 118.656C75.586 118.161 77.6962 117.665 79.7059 116.971C81.0123 116.574 82.3186 116.078 83.625 115.583C84.9313 115.087 86.2376 114.591 87.4435 113.996C88.6493 113.401 89.9557 112.806 91.1615 112.112C92.3674 111.517 93.4727 110.823 94.5781 110.129C95.7839 109.435 96.7888 108.642 97.8942 107.947C98.9995 107.154 100.004 106.46 101.009 105.667C107.541 100.511 112.867 94.5613 116.786 88.3145C116.886 88.1162 117.087 87.9179 117.188 87.7196C120.202 83.555 122.715 78.9938 124.624 73.9368C126.433 68.979 127.638 63.6246 127.94 58.0718C128.04 55.4937 128.04 52.7174 127.739 49.941ZM49.5597 107.452L47.55 95.6521C47.349 94.6605 47.2485 93.6689 47.0476 92.6774L46.4446 89.7027C46.2437 88.9094 46.0427 88.017 45.9422 87.2238C49.1578 86.3314 52.3734 85.3398 55.4885 84.1499C55.79 84.844 56.1919 85.5381 56.6944 86.2322C57.5987 87.5212 58.8046 88.7111 60.2114 89.6035C61.6182 90.4959 63.226 90.9917 64.7333 91.19C65.5372 91.2892 66.2407 91.3883 67.0445 91.2892C67.4465 91.2892 67.748 91.2892 68.1499 91.19L68.7528 91.0909C68.9538 91.0909 69.0543 90.9917 69.3558 90.9917C69.8582 90.8926 70.2601 90.7934 70.6621 90.6943L72.0689 90.3968C72.9733 90.1985 73.8777 89.901 74.7821 89.6035C75.4855 89.4052 76.1889 89.1077 76.8923 88.9094C76.2894 91.4875 75.7869 94.0656 75.2845 96.6436C74.4806 101.205 73.6767 105.667 72.8728 110.228C71.9684 110.426 71.064 110.526 70.1596 110.625C62.8241 111.517 55.79 110.823 49.9617 109.038C49.7607 108.542 49.6602 108.047 49.5597 107.452ZM26.1462 99.0234C24.2369 97.2386 22.3277 95.3546 20.7199 93.3715C19.916 92.3799 19.1121 91.2892 18.3082 90.1985C17.9062 89.7027 17.5043 89.1077 17.2028 88.5128L16.1979 86.9263C14.6906 84.2491 13.6858 82.266 12.6809 79.787C11.7765 77.3081 11.0731 74.8292 10.4702 72.2512C9.3648 67.095 9.16382 61.8397 9.66625 56.6836C10.1687 51.5275 11.475 46.3713 13.3843 41.5127C14.2887 39.0338 15.4945 36.7532 16.7004 34.4726C18.0067 32.192 19.4135 30.0105 20.9208 28.0274C24.0359 23.962 27.4525 20.1941 31.3715 17.0211C32.3764 16.2278 33.2808 15.4345 34.3862 14.7405C35.391 13.9472 36.3959 13.2531 37.5013 12.6582L38.2047 12.1624L39.0086 11.6666C39.511 11.3691 40.1139 10.9725 40.6164 10.675C41.7217 10.0801 42.7266 9.48517 43.832 8.98938C48.1529 6.80794 52.6749 5.22144 57.0963 4.03157C61.6182 2.94085 66.0397 2.44506 70.3606 2.24675C79.0025 2.04844 86.9411 3.63494 93.4727 6.31216C100.004 8.98939 105.23 12.4599 108.948 15.9303C110.154 17.0211 111.159 18.0126 112.163 19.0042C110.455 17.4177 108.546 15.9303 106.637 14.5421C104.325 12.9556 101.813 11.4683 99.301 10.2784C96.7888 9.08854 94.0757 8.09698 91.463 7.30373C86.1372 5.71722 80.6103 5.02313 75.2845 5.02313C69.8582 5.12229 64.6329 5.91554 59.709 7.30373C54.7851 8.69192 50.0622 10.7742 45.8417 13.2531C44.8368 13.848 43.7315 14.443 42.7266 15.2362C41.6213 15.9303 40.7169 16.6244 39.8125 17.2194C38.8076 17.9135 37.9032 18.7067 36.9988 19.4008C36.0944 20.1941 35.2905 20.8882 34.3862 21.6814C27.6535 28.0274 22.9306 35.365 19.916 42.6034C17.0018 49.8418 15.796 56.9811 15.796 63.3271C15.796 66.5001 16.0975 69.3756 16.5999 72.0528C16.8009 73.441 17.1023 74.6309 17.4038 75.8208C17.5043 75.8208 17.6048 75.8208 17.7052 75.8208C16.9013 72.152 16.3989 67.9874 16.5999 63.3271C16.9014 57.1794 18.5091 50.2384 21.9257 43.4958C23.634 40.1245 25.7442 36.7532 28.2564 33.6793C30.8691 30.6055 33.8837 27.6308 37.1998 25.0527C38.0037 24.3586 38.9081 23.7637 39.8125 23.1687C40.7169 22.5738 41.6212 21.9789 42.5256 21.3839C43.5305 20.789 44.5354 20.1941 45.4398 19.6983C46.3442 19.2025 47.349 18.7067 48.3539 18.2109C52.3734 16.327 56.6944 15.0379 61.2163 14.0464C70.1597 12.2615 79.8064 12.8565 88.5488 15.9303C92.9703 17.4177 97.0903 19.5991 100.808 22.3755C102.617 23.7637 104.426 25.251 106.034 26.8375C106.838 27.7299 107.641 28.5232 108.345 29.4156C108.747 29.8122 109.048 30.308 109.45 30.8038L110.455 32.0928C112.063 34.3734 112.967 35.9599 114.073 38.0422C115.078 40.1245 115.881 42.2068 116.585 44.3882C117.891 48.7511 118.595 53.3123 118.595 57.8735C118.595 62.4347 117.891 66.9959 116.585 71.3588C115.379 75.7216 113.47 79.9854 111.159 83.8525C108.747 87.7196 106.034 91.2892 102.919 94.363C102.115 95.1563 101.311 95.9495 100.507 96.6436C99.7029 97.4369 98.7986 98.0318 97.9947 98.7259L97.3917 99.2217L96.6883 99.7175L95.2815 100.709C94.3771 101.304 93.5732 101.899 92.6688 102.494C89.0513 104.774 85.2328 106.559 81.4142 107.947C79.505 108.642 77.5957 109.137 75.6865 109.534C76.7918 105.469 77.7967 101.403 78.9021 97.4369C79.8064 94.2639 80.7108 90.9917 81.6152 87.8187C81.7157 87.4221 81.8162 87.0255 82.0172 86.6288C84.5294 85.439 87.0415 83.9516 89.3527 82.266C90.8601 81.1752 92.3674 79.8862 93.6737 78.5972C95.0805 77.209 96.2864 75.8208 97.3917 74.2343C99.7029 71.0613 101.311 67.3925 102.215 63.6246C103.019 60.0549 103.521 56.4853 103.622 52.8165C103.722 51.0317 103.622 49.1477 103.421 47.2637C103.32 46.2722 103.12 45.2806 102.919 44.1899C102.818 43.6941 102.617 43.0992 102.316 42.5042C102.014 41.9093 101.713 41.2152 101.009 40.422C100.708 40.0253 100.205 39.6287 99.6025 39.2321C98.9995 38.8355 98.0951 38.6371 97.2912 38.538C95.583 38.4388 94.4776 39.1329 93.8747 39.5296C92.4678 40.5211 91.8649 41.4135 91.1615 42.3059C89.9557 43.9916 89.1518 45.6772 88.3479 47.2637C86.8406 50.5359 85.7352 53.8081 84.6298 57.0802C82.4191 63.6246 80.7108 70.1689 79.103 76.8124C79.0025 77.4073 78.8016 77.9031 78.7011 78.498C77.7967 78.8946 76.8923 79.2913 75.9879 79.6879C74.5811 80.2828 73.0738 80.7786 71.5665 81.2744C70.8631 81.4727 70.0592 81.671 69.3558 81.8693L68.2504 82.1668C67.9489 82.266 67.4465 82.3651 67.2455 82.3651L66.9441 82.4643C67.145 82.4643 66.9441 82.4643 66.9441 82.4643H66.7431C66.6426 82.4643 66.5421 82.4643 66.3411 82.4643C66.0397 82.4643 65.8387 82.4643 65.6377 82.4643C65.1353 82.3651 64.8338 82.266 64.5324 82.0676C64.2309 81.8693 64.0299 81.671 63.7285 81.2744C63.5275 81.0761 63.427 80.6795 63.226 80.382C64.5324 79.5887 65.9392 78.6963 67.2455 77.8039C69.0543 76.4157 70.8631 74.7301 72.3704 72.5486C73.7772 70.4663 74.8826 67.9874 75.385 65.4094C75.787 62.8313 75.6865 60.2532 75.2845 57.9726C75.184 57.3777 74.9831 56.7828 74.8826 56.1878L74.7821 55.7912L74.6816 55.3946L74.4806 54.6013C74.1791 53.5106 73.7772 52.3207 73.0738 51.1309C72.7723 50.5359 72.3704 49.8418 71.667 49.0486C70.9635 48.3545 69.9587 47.2637 68.0494 46.768C67.145 46.5697 66.0397 46.5697 65.2358 46.768C64.3314 46.9663 63.7285 47.3629 63.226 47.6604C62.2212 48.3545 61.6182 48.9494 61.1158 49.6435C60.1109 50.8334 59.508 51.9241 59.0056 53.0148C58.5031 54.1055 58.0007 55.0971 57.5987 56.0887C57.1968 57.0802 56.7948 58.171 56.4934 59.1625L56.3929 59.5591L56.2924 60.0549L56.0914 60.749L55.6895 62.2364C55.388 63.2279 55.187 64.3187 54.9861 65.3102C54.7851 66.4009 54.5841 67.3925 54.3831 68.4832C54.0817 70.268 53.8807 72.0528 53.7802 73.9368C53.7802 73.9368 53.6797 75.1267 53.6797 76.2174C53.3783 76.3166 53.0768 76.5149 52.7753 76.614C49.9617 77.8039 47.0476 78.7955 44.0329 79.787C43.43 77.209 42.8271 74.7301 42.0232 72.152C41.4203 70.1689 40.8173 68.2849 40.1139 66.3018C39.4105 64.3187 38.7071 62.4347 37.5013 60.4516C37.1998 59.9558 36.8983 59.46 36.3959 58.8651C36.1949 58.5676 35.8935 58.2701 35.4915 57.9726C35.0896 57.6752 34.6876 57.2785 33.7832 57.0802C33.3813 56.9811 32.8788 56.8819 32.2759 56.9811C31.7735 57.0802 31.1706 57.2785 30.8691 57.576C30.0652 58.0718 29.7637 58.6667 29.4623 59.0634C28.9598 59.9558 28.7589 60.6499 28.6584 61.2448C28.3569 62.5338 28.2564 63.6246 28.2564 64.8144C28.2564 65.9052 28.2564 66.9959 28.2564 68.0866C28.3569 69.1773 28.4574 70.268 28.6584 71.3588C28.7589 71.8545 28.8593 72.4495 28.9598 72.9453L29.0603 73.3419V73.5402C29.0603 73.5402 28.9598 73.3419 29.0603 73.441V73.5402V73.6394L29.1608 74.4326C29.5628 76.5149 30.0652 78.498 30.7686 80.5803C31.0701 81.671 31.472 82.6626 32.0749 83.7533C32.6779 84.844 33.1803 86.0339 34.5871 87.3229C35.2905 87.9179 36.2954 88.7111 37.9032 88.9094C38.3052 89.0086 38.7071 89.0086 39.1091 88.9094C39.31 88.9094 39.511 88.9094 39.712 88.8103L40.1139 88.7111L40.8173 88.5128C41.3198 88.4137 41.8222 88.2153 42.4251 88.1162C43.229 90.7934 44.0329 93.4706 44.7364 96.247L47.952 107.749C48.0524 108.047 48.1529 108.443 48.2534 108.741C44.2339 107.452 40.7169 105.766 37.8027 103.882C37.7022 103.981 37.6017 103.981 37.6017 104.08C38.6066 104.675 39.712 105.469 40.8173 106.063C43.1286 107.353 45.6407 108.542 48.4544 109.534C48.5549 109.931 48.6554 110.327 48.7559 110.724C45.4398 109.931 42.2242 108.84 39.1091 107.452C34.5871 105.369 30.0652 102.494 26.1462 99.0234ZM86.0367 74.3335C86.6396 72.4495 87.2425 70.6647 87.8454 68.7807C88.9508 65.6077 89.9557 62.4347 91.1615 59.3608C92.3674 56.287 93.5732 53.2131 95.0805 50.4368C95.382 49.8418 95.7839 49.1477 96.0854 48.6519C96.1859 49.941 96.1859 51.23 96.0854 52.6182C95.8844 55.692 95.382 58.8651 94.5781 61.8397C93.7742 64.6161 92.5683 67.1942 90.8601 69.4748C89.5537 71.2596 87.8454 72.8461 86.0367 74.3335ZM63.3265 70.4663C63.3265 70.268 63.427 70.0697 63.427 69.8714C63.5275 68.979 63.7285 68.0866 63.9294 67.1942C64.1304 66.3018 64.3314 65.4094 64.5324 64.517L64.9343 63.0296L65.1353 62.3355L65.3363 61.8397C65.6377 60.9473 65.9392 60.1541 66.2406 59.2617C66.3411 58.865 66.5421 58.5676 66.6426 58.2701V58.3693V58.4684C66.7431 58.8651 66.8436 59.2617 66.9441 59.6583C67.2455 61.2448 67.346 62.7321 67.145 64.1203C66.9441 65.5085 66.4416 66.7976 65.6377 67.9874C65.0348 68.7807 64.2309 69.6731 63.3265 70.4663ZM39.2096 81.2744C39.0086 81.0761 38.8076 80.7786 38.7071 80.4811C38.3052 79.787 37.9032 78.9938 37.6017 78.2005C36.8983 76.5149 36.2954 74.7301 35.793 72.9453L35.391 71.4579C35.2905 71.0613 35.1901 70.5655 35.0896 70.1689C34.8886 69.2765 34.7881 68.3841 34.6876 67.4917C34.5871 66.7976 34.4866 66.1035 34.4866 65.3102C34.9891 66.2026 35.391 67.095 35.793 68.0866C36.5969 69.8714 37.3003 71.6562 37.9032 73.5402C38.8076 75.9199 39.6115 78.3989 40.4154 80.8778L39.2096 81.2744ZM39.712 81.7702L39.6115 81.671C39.712 81.7702 39.712 81.7702 39.712 81.7702ZM32.3764 62.2364C32.2759 62.2364 32.2759 62.1372 32.3764 62.2364C32.2759 62.1372 32.3764 62.2364 32.3764 62.2364ZM50.1627 111.021C50.0622 110.724 50.0622 110.327 49.9617 110.03C53.4788 111.22 57.2973 112.112 61.5177 112.509C57.6992 112.41 53.8807 111.914 50.1627 111.021Z" fill="url(#paint0_linear)"/>
<defs>
<linearGradient id="paint0_linear" x1="-40.6022" y1="55.2462" x2="155.471" y2="80.2356" gradientUnits="userSpaceOnUse">
<stop stop-color="#DC6D3E"/>
<stop offset="0.0001" stop-color="#ED9E40"/>
<stop offset="1" stop-color="#CC1276"/>
</linearGradient>
</defs>
</svg>
