<svg width="204" height="38" viewBox="0 0 204 38" fill="none" xmlns="http://www.w3.org/2000/svg">
<path d="M7.70452 37.5649H0V2.74316H7.70452V37.5649Z" fill="white"/>
<path d="M26.1472 15.9967C23.4474 15.9967 20.6158 18.0306 19.4305 20.0644V37.5061H12.1211V11.9291H18.2452L18.8378 15.3188C21.0109 12.9768 24.4351 10.8813 28.5179 10.943C35.1688 11.0662 38.0003 15.627 38.0003 21.9134V37.5061H30.6909V22.5913C30.6251 19.0783 30.4275 15.9967 26.1472 15.9967Z" fill="white"/>
<path d="M55.3152 15.9967C52.6153 15.9967 49.7838 18.0306 48.5985 20.0644V37.5061H41.2891V11.9291H47.4132L48.0058 15.3188C50.1789 12.9768 53.6031 10.8813 57.6858 10.943C64.3367 11.0662 67.1683 15.627 67.1683 21.9134V37.5061H59.8589V22.5913C59.8589 19.0783 59.5955 15.9967 55.3152 15.9967Z" fill="white"/>
<path d="M96.4714 24.5622C96.4714 32.3277 91.8618 37.9978 82.972 37.9978C74.0822 37.9978 69.4727 32.3277 69.4727 24.5622C69.4727 16.6117 74.0822 10.9417 82.972 10.9417C91.9277 10.9417 96.4714 16.6117 96.4714 24.5622ZM89.5571 24.5622C89.5571 18.8305 86.8572 15.9954 83.0379 15.9954C79.2185 15.9954 76.5845 18.8305 76.5845 24.5622C76.5845 30.109 79.1527 33.0673 83.0379 33.0673C86.9231 33.0673 89.5571 30.1707 89.5571 24.5622Z" fill="white"/>
<path d="M116.356 17.4715C114.512 16.547 111.022 15.8691 108.981 15.8691C106.018 15.8691 104.832 16.547 104.701 17.9646C104.569 19.7519 105.425 20.1833 107.796 20.9845L112.01 22.3404C115.368 23.4498 118.793 25.7301 118.793 29.6745C118.793 33.9887 115.763 37.9331 109.376 37.9331C104.24 37.9331 100.552 37.1319 97.918 35.3446L99.3667 30.9072C101.606 32.2631 105.82 33.0026 108.52 33.0026C110.561 33.0026 112.208 32.2631 112.208 30.4141C112.208 28.935 111.615 28.3803 109.508 27.6407L105.425 26.2232C101.474 24.8673 98.3131 22.9567 98.3131 18.7041C98.3131 13.4038 102.528 10.877 108.454 10.877C112.339 10.877 115.434 11.4933 117.673 12.9724L116.356 17.4715Z" fill="white"/>
<path d="M146.979 24.5622C146.979 32.3277 142.37 37.9978 133.48 37.9978C124.59 37.9978 119.98 32.3277 119.98 24.5622C119.98 16.6117 124.59 10.9417 133.48 10.9417C142.37 10.9417 146.979 16.6117 146.979 24.5622ZM139.999 24.5622C139.999 18.8305 137.299 15.9954 133.48 15.9954C129.66 15.9954 127.026 18.8305 127.026 24.5622C127.026 30.109 129.595 33.0673 133.48 33.0673C137.365 33.0673 139.999 30.1707 139.999 24.5622Z" fill="white"/>
<path d="M162.128 0.341309H164.565L165.223 5.39509H162.853C159.56 5.39509 158.902 6.68935 158.902 9.83255V11.928H165.026V15.9957H158.902V37.5667H151.658V15.9957H147.246V11.928H151.658V11.1268C151.592 4.34735 152.382 0.341309 162.128 0.341309Z" fill="white"/>
<path d="M176.149 26.9694C176.149 31.2836 176.412 32.7011 180.429 32.7011C180.561 32.7011 182.734 32.5779 182.734 32.5779L183.129 37.6316C183.129 37.6316 180.429 37.9398 179.046 37.9398C170.552 37.9398 168.905 34.1187 168.905 26.6613V16.1839H164.164L164.559 12.1162H168.905L170.683 2.625H176.149V11.9313H182.866V15.999H176.149V26.9694Z" fill="white"/>
<path d="M202.094 5.77794L201.106 5.71631C201.106 5.71631 201.106 5.83958 201.106 6.0861C201.106 6.20936 201.106 6.33263 201.041 6.45589C201.041 6.57915 200.975 6.76405 200.975 6.94894C200.843 7.31873 200.711 7.81178 200.382 8.30483C200.185 8.67462 199.855 8.98278 199.46 9.35257L198.868 8.18157C198.604 7.68852 198.407 7.31873 198.077 6.88731C199.065 6.57915 199.592 5.90121 199.592 4.79184C199.592 2.9429 198.341 2.57311 196.431 2.57311H193.139V9.72236C192.612 9.4142 192.085 8.98278 191.69 8.4281C191.361 8.05831 191.163 7.56526 190.965 7.13384C190.768 6.64078 190.702 6.14773 190.702 5.65468C190.702 5.1 190.768 4.66858 190.9 4.17553C191.031 3.68248 191.229 3.25106 191.558 2.81964C192.151 1.9568 192.941 1.27885 193.863 0.847431C194.785 0.416011 195.838 0.292749 196.826 0.35438C197.748 0.416012 198.67 0.724168 199.394 1.15559C200.119 1.58701 200.645 2.14169 201.041 2.63474C201.436 3.18943 201.699 3.68248 201.831 4.17553C201.897 4.42205 201.962 4.60695 201.962 4.79184C202.028 4.97674 202.028 5.1 202.028 5.28489C202.094 5.65468 202.094 5.77794 202.094 5.77794C202.094 5.77794 202.094 5.65468 202.094 5.40816C202.094 5.28489 202.094 5.1 202.028 4.91511C202.028 4.73021 201.962 4.54532 201.897 4.29879C201.765 3.80574 201.567 3.25106 201.172 2.69637C200.777 2.14169 200.25 1.52538 199.526 1.03233C198.802 0.539276 197.88 0.169486 196.826 0.0462233C195.838 -0.0770395 194.653 0.0462247 193.599 0.416013C192.546 0.847433 191.558 1.52538 190.834 2.44985C190.504 2.9429 190.241 3.43595 189.978 3.99063C189.78 4.54532 189.714 5.16163 189.648 5.71631C189.648 6.33263 189.714 6.88731 189.912 7.50363C190.109 8.05831 190.373 8.61299 190.702 9.10604C191.361 10.0921 192.348 10.8934 193.468 11.3864C194.06 11.6329 194.587 11.8178 195.18 11.8795C195.509 11.9411 195.773 11.9411 195.97 11.9411C196.299 11.9411 196.563 11.9411 196.826 11.9411C197.946 11.8178 198.999 11.5097 199.855 10.955C200.711 10.4619 201.37 9.84562 201.831 9.16767C202.292 8.55136 202.555 7.93505 202.753 7.38036C202.819 7.13384 202.884 6.88731 202.95 6.64078C203.016 6.39426 203.016 6.20936 203.016 6.0861C203.016 5.83958 203.016 5.71631 203.016 5.71631L202.094 5.77794ZM194.851 3.86737H196.431C197.419 3.86737 197.946 4.17553 197.946 4.91511C197.946 5.77795 197.485 6.0861 196.431 6.0861H194.916V3.86737H194.851ZM196.76 10.5852C196.563 10.5852 196.299 10.6468 196.102 10.6468C195.838 10.6468 195.575 10.6468 195.377 10.5852C195.18 10.5852 195.048 10.5236 194.851 10.5236V7.2571C194.851 7.2571 196.299 7.2571 196.563 7.2571C196.563 7.2571 197.287 7.99668 197.616 8.48973L198.802 9.78399C198.275 10.2154 197.55 10.5236 196.76 10.5852Z" fill="white"/>
</svg>
