<svg width="680" height="408" viewBox="0 0 680 408" fill="none" xmlns="http://www.w3.org/2000/svg">
<path d="M459.511 93.123C458.945 87.946 458.003 82.769 456.496 77.7769C454.989 72.7848 453.104 67.7927 450.843 62.9854C448.582 58.3631 445.379 53.1861 442.93 49.4882L440.292 46.1602C439.539 45.0508 438.597 44.1263 437.843 43.017C436.147 40.9832 434.263 39.1342 432.379 37.1004L432.19 36.9155C430.118 34.5119 427.669 32.1083 424.842 29.3349C423.147 27.6709 421.074 26.1917 419.19 24.3428C417.117 22.6787 414.856 21.0147 412.407 19.5356C407.697 16.3924 402.233 13.0643 396.015 10.4758C383.768 4.929 368.883 0.861354 352.115 0.121781C335.346 -0.617791 316.881 1.97071 298.793 8.99665C280.706 16.2075 262.995 27.6709 248.864 43.9415C245.284 48.0091 242.081 52.2616 239.066 56.884C236.052 61.5063 233.225 66.3135 230.964 71.3056C226.254 81.2899 222.674 92.1986 221.167 103.662C220.413 109.394 219.848 115.125 220.037 120.857C220.225 126.589 220.79 132.505 221.921 138.237C223.051 143.969 224.558 149.7 226.631 155.247C228.704 160.609 231.53 166.71 234.168 170.963L236.617 174.846C237.371 176.14 238.313 177.249 239.066 178.544C240.762 180.947 242.646 183.351 244.53 185.57C248.299 190.007 252.632 194.26 257.154 198.142C261.676 202.025 266.575 205.353 271.662 208.311C276.749 211.27 282.025 213.858 287.489 216.077C298.228 220.329 309.722 222.918 320.838 223.842C326.49 224.397 332.143 224.397 337.607 224.027C343.071 223.658 348.535 223.103 353.81 222.178C352.303 230.684 350.984 239.189 349.477 247.694C349.665 248.063 350.042 248.063 350.23 247.879C352.868 239.004 355.318 230.129 357.767 221.254C361.724 220.329 365.68 219.405 369.449 218.111C371.898 217.371 374.347 216.447 376.797 215.522C379.246 214.598 381.696 213.673 383.957 212.564C386.218 211.455 388.667 210.345 390.928 209.051C393.189 207.942 395.261 206.647 397.334 205.353C399.595 204.059 401.479 202.58 403.552 201.285C405.624 199.806 407.508 198.512 409.392 197.033C421.639 187.419 431.625 176.325 438.973 164.677C439.162 164.307 439.539 163.937 439.727 163.567C445.379 155.802 450.09 147.297 453.67 137.867C457.061 128.622 459.322 118.638 459.887 108.284C460.076 103.477 460.076 98.3 459.511 93.123ZM312.925 200.361L309.156 178.359C308.779 176.51 308.591 174.661 308.214 172.812L307.084 167.265C306.707 165.786 306.33 164.122 306.142 162.643C312.171 160.979 318.2 159.13 324.041 156.911C324.606 158.205 325.36 159.5 326.302 160.794C327.998 163.198 330.259 165.416 332.896 167.08C335.534 168.744 338.549 169.669 341.375 170.039C342.882 170.223 344.201 170.408 345.709 170.223C346.462 170.223 347.027 170.223 347.781 170.039L348.912 169.854C349.288 169.854 349.477 169.669 350.042 169.669C350.984 169.484 351.738 169.299 352.491 169.114L355.129 168.559C356.825 168.19 358.521 167.635 360.216 167.08C361.535 166.71 362.854 166.156 364.173 165.786C363.043 170.593 362.101 175.4 361.158 180.208C359.651 188.713 358.144 197.033 356.637 205.538C354.941 205.908 353.245 206.093 351.549 206.278C337.795 207.942 324.606 206.647 313.678 203.319C313.301 202.395 313.113 201.47 312.925 200.361ZM269.024 184.645C265.444 181.317 261.864 177.804 258.85 174.106C257.342 172.257 255.835 170.223 254.328 168.19C253.574 167.265 252.821 166.156 252.255 165.046L250.371 162.088C247.545 157.096 245.661 153.398 243.777 148.776C242.081 144.154 240.762 139.531 239.632 134.724C237.559 125.11 237.182 115.31 238.124 105.696C239.066 96.0813 241.516 86.4669 245.096 77.4071C246.791 72.7848 249.052 68.5322 251.313 64.2797C253.763 60.0272 256.4 55.9595 259.227 52.2616C265.067 44.681 271.473 37.6551 278.822 31.7385C280.706 30.2594 282.401 28.7802 284.474 27.486C286.358 26.0068 288.242 24.7126 290.315 23.6032L291.634 22.6787L293.141 21.7543C294.083 21.1996 295.214 20.46 296.156 19.9053C298.228 18.796 300.112 17.6866 302.185 16.7622C310.287 12.6945 318.765 9.73622 327.056 7.51751C335.534 5.48368 343.824 4.55922 351.926 4.18943C368.13 3.81964 383.014 6.77793 395.261 11.77C407.508 16.7622 417.306 23.2334 424.277 29.7047C426.538 31.7385 428.422 33.5874 430.306 35.4364C427.103 32.4781 423.523 29.7047 419.944 27.1162C415.61 24.1579 410.9 21.3845 406.189 19.1658C401.479 16.9471 396.392 15.0981 391.493 13.619C381.507 10.6607 371.144 9.36644 361.158 9.36644C350.984 9.55133 341.187 11.0305 331.954 13.619C322.722 16.2075 313.867 20.0902 305.953 24.7126C304.069 25.8219 301.997 26.9313 300.112 28.4104C298.04 29.7047 296.344 30.9989 294.648 32.1083C292.764 33.4025 291.069 34.8817 289.373 36.1759C287.677 37.6551 286.17 38.9493 284.474 40.4285C271.85 52.2616 262.995 65.9437 257.342 79.4409C251.878 92.9381 249.617 106.25 249.617 118.084C249.617 124 250.183 129.362 251.125 134.354C251.502 136.943 252.067 139.161 252.632 141.38C252.821 141.38 253.009 141.38 253.197 141.38C251.69 134.539 250.748 126.774 251.125 118.084C251.69 106.62 254.705 93.6777 261.111 81.105C264.314 74.8186 268.27 68.5322 272.981 62.8005C277.88 57.0689 283.532 51.5221 289.75 46.7149C291.257 45.4206 292.953 44.3112 294.648 43.2019C296.344 42.0925 298.04 40.9832 299.736 39.8738C301.62 38.7644 303.504 37.6551 305.2 36.7306C306.895 35.8062 308.779 34.8817 310.664 33.9572C318.2 30.4443 326.302 28.0406 334.781 26.1917C351.549 22.8636 369.637 23.973 386.029 29.7047C394.319 32.4781 402.044 36.5457 409.016 41.7227C412.407 44.3112 415.798 47.0846 418.813 50.0429C420.32 51.707 421.828 53.1861 423.147 54.8501C423.9 55.5897 424.466 56.5142 425.219 57.4386L427.103 59.8423C430.118 64.0948 431.814 67.0531 433.886 70.9358C435.77 74.8186 437.278 78.7014 438.597 82.769C441.046 90.9043 442.365 99.4094 442.365 107.914C442.365 116.42 441.046 124.925 438.597 133.06C436.336 141.195 432.756 149.146 428.422 156.356C423.9 163.567 418.813 170.223 412.972 175.955C411.465 177.434 409.958 178.913 408.45 180.208C406.943 181.687 405.247 182.796 403.74 184.09L402.61 185.015L401.291 185.939L398.653 187.788C396.957 188.898 395.45 190.007 393.754 191.116C386.971 195.369 379.811 198.697 372.652 201.285C369.072 202.58 365.492 203.504 361.912 204.244C363.985 196.663 365.869 189.083 367.941 181.687C369.637 175.77 371.333 169.669 373.029 163.752C373.217 163.013 373.405 162.273 373.782 161.533C378.493 159.315 383.203 156.541 387.536 153.398C390.363 151.364 393.189 148.961 395.638 146.557C398.276 143.969 400.537 141.38 402.61 138.422C406.943 132.505 409.958 125.664 411.653 118.638C413.161 111.982 414.103 105.326 414.291 98.4849C414.48 95.1568 414.291 91.6439 413.914 88.1309C413.726 86.282 413.349 84.433 412.972 82.3992C412.784 81.4748 412.407 80.3654 411.842 79.256C411.277 78.1467 410.711 76.8524 409.392 75.3733C408.827 74.6337 407.885 73.8941 406.755 73.1546C405.624 72.415 403.928 72.0452 402.421 71.8603C399.218 71.6754 397.146 72.9697 396.015 73.7092C393.377 75.5582 392.247 77.2222 390.928 78.8862C388.667 82.0294 387.16 85.1726 385.652 88.1309C382.826 94.2324 380.754 100.334 378.681 106.435C374.536 118.638 371.333 130.841 368.318 143.229C368.13 144.338 367.753 145.263 367.565 146.372C365.869 147.112 364.173 147.851 362.477 148.591C359.84 149.7 357.013 150.625 354.187 151.549C352.868 151.919 351.361 152.289 350.042 152.659L347.969 153.213C347.404 153.398 346.462 153.583 346.085 153.583L345.52 153.768C345.897 153.768 345.52 153.768 345.52 153.768H345.143C344.955 153.768 344.766 153.768 344.39 153.768C343.824 153.768 343.448 153.768 343.071 153.768C342.129 153.583 341.563 153.398 340.998 153.028C340.433 152.659 340.056 152.289 339.491 151.549C339.114 151.179 338.926 150.44 338.549 149.885C340.998 148.406 343.636 146.742 346.085 145.078C349.477 142.489 352.868 139.346 355.694 135.279C358.332 131.396 360.405 126.774 361.347 121.966C362.101 117.159 361.912 112.352 361.158 108.099C360.97 106.99 360.593 105.881 360.405 104.771L360.216 104.032L360.028 103.292L359.651 101.813C359.086 99.7792 358.332 97.5605 357.013 95.3417C356.448 94.2324 355.694 92.9381 354.376 91.459C353.057 90.1647 351.173 88.1309 347.593 87.2064C345.897 86.8366 343.824 86.8366 342.317 87.2064C340.621 87.5762 339.491 88.3158 338.549 88.8705C336.665 90.1647 335.534 91.2741 334.592 92.5683C332.708 94.7871 331.578 96.8209 330.635 98.8547C329.693 100.889 328.751 102.737 327.998 104.586C327.244 106.435 326.49 108.469 325.925 110.318L325.737 111.058L325.548 111.982L325.171 113.276L324.418 116.05C323.853 117.899 323.476 119.933 323.099 121.781C322.722 123.815 322.345 125.664 321.968 127.698C321.403 131.026 321.026 134.354 320.838 137.867C320.838 137.867 320.649 140.086 320.649 142.12C320.084 142.305 319.519 142.674 318.954 142.859C313.678 145.078 308.214 146.927 302.562 148.776C301.431 143.969 300.301 139.346 298.793 134.539C297.663 130.841 296.533 127.328 295.214 123.63C293.895 119.933 292.576 116.42 290.315 112.722C289.75 111.797 289.184 110.873 288.242 109.763C287.865 109.209 287.3 108.654 286.547 108.099C285.793 107.545 285.039 106.805 283.344 106.435C282.59 106.25 281.648 106.066 280.517 106.25C279.575 106.435 278.445 106.805 277.88 107.36C276.372 108.284 275.807 109.394 275.242 110.133C274.3 111.797 273.923 113.091 273.734 114.201C273.169 116.604 272.981 118.638 272.981 120.857C272.981 122.891 272.981 124.925 272.981 126.958C273.169 128.992 273.358 131.026 273.734 133.06C273.923 133.984 274.111 135.094 274.3 136.018L274.488 136.758V137.128C274.488 137.128 274.3 136.758 274.488 136.943V137.128V137.312L274.677 138.792C275.43 142.674 276.372 146.372 277.691 150.255C278.256 152.289 279.01 154.138 280.141 156.172C281.271 158.205 282.213 160.424 284.851 162.828C286.17 163.937 288.054 165.416 291.069 165.786C291.822 165.971 292.576 165.971 293.329 165.786C293.706 165.786 294.083 165.786 294.46 165.601L295.214 165.416L296.533 165.046C297.475 164.862 298.417 164.492 299.547 164.307C301.054 169.299 302.562 174.291 303.881 179.468L309.91 200.916C310.098 201.47 310.287 202.21 310.475 202.765C302.939 200.361 296.344 197.218 290.88 193.705C290.692 193.89 290.503 193.89 290.503 194.075C292.387 195.184 294.46 196.663 296.533 197.773C300.866 200.176 305.576 202.395 310.852 204.244C311.04 204.983 311.229 205.723 311.417 206.462C305.2 204.983 299.17 202.95 293.329 200.361C284.851 196.478 276.372 191.116 269.024 184.645ZM381.319 138.607C382.449 135.094 383.58 131.766 384.71 128.253C386.783 122.336 388.667 116.42 390.928 110.688C393.189 104.956 395.45 99.2245 398.276 94.0475C398.841 92.9381 399.595 91.6439 400.16 90.7194C400.349 93.123 400.349 95.5266 400.16 98.1151C399.783 103.847 398.841 109.763 397.334 115.31C395.827 120.487 393.566 125.294 390.363 129.547C387.913 132.875 384.71 135.833 381.319 138.607ZM338.737 131.396C338.737 131.026 338.926 130.656 338.926 130.287C339.114 128.622 339.491 126.958 339.868 125.294C340.245 123.63 340.621 121.966 340.998 120.302L341.752 117.529L342.129 116.235L342.506 115.31C343.071 113.646 343.636 112.167 344.201 110.503C344.39 109.763 344.766 109.209 344.955 108.654V108.839V109.024C345.143 109.763 345.332 110.503 345.52 111.243C346.085 114.201 346.274 116.974 345.897 119.563C345.52 122.151 344.578 124.555 343.071 126.774C341.94 128.253 340.433 129.917 338.737 131.396ZM293.518 151.549C293.141 151.179 292.764 150.625 292.576 150.07C291.822 148.776 291.069 147.297 290.503 145.818C289.184 142.674 288.054 139.346 287.112 136.018L286.358 133.245C286.17 132.505 285.981 131.581 285.793 130.841C285.416 129.177 285.228 127.513 285.039 125.849C284.851 124.555 284.662 123.261 284.662 121.781C285.605 123.445 286.358 125.11 287.112 126.958C288.619 130.287 289.938 133.615 291.069 137.128C292.764 141.565 294.272 146.187 295.779 150.81L293.518 151.549ZM294.46 152.474L294.272 152.289C294.46 152.474 294.46 152.474 294.46 152.474ZM280.706 116.05C280.517 116.05 280.517 115.865 280.706 116.05C280.517 115.865 280.706 116.05 280.706 116.05ZM314.055 207.017C313.867 206.463 313.867 205.723 313.678 205.168C320.273 207.387 327.432 209.051 335.346 209.791C328.186 209.606 321.026 208.681 314.055 207.017Z" fill="url(#paint0_linear)"/>
<path d="M99.3568 335.809H78V240.525H99.3568V335.809Z" fill="white"/>
<path d="M150.465 276.795C142.981 276.795 135.132 282.361 131.846 287.926V335.652H111.585V265.665H128.561L130.204 274.94C136.227 268.532 145.719 262.798 157.037 262.967C175.473 263.304 183.322 275.783 183.322 292.985V335.652H163.06V294.84C162.878 285.228 162.33 276.795 150.465 276.795Z" fill="white"/>
<path d="M231.328 276.797C223.844 276.797 215.994 282.363 212.709 287.928V335.654H192.447V265.667H209.423L211.066 274.942C217.09 268.534 226.582 262.8 237.899 262.968C256.335 263.306 264.184 275.785 264.184 292.987V335.654H243.923V294.842C243.923 285.23 243.192 276.797 231.328 276.797Z" fill="white"/>
<path d="M345.414 300.233C345.414 321.482 332.637 336.998 307.994 336.998C283.352 336.998 270.574 321.482 270.574 300.233C270.574 278.478 283.352 262.963 307.994 262.963C332.819 262.963 345.414 278.478 345.414 300.233ZM326.248 300.233C326.248 284.549 318.764 276.792 308.177 276.792C297.59 276.792 290.288 284.549 290.288 300.233C290.288 315.411 297.407 323.506 308.177 323.506C318.946 323.506 326.248 315.58 326.248 300.233Z" fill="white"/>
<path d="M400.534 280.842C395.423 278.312 385.749 276.457 380.09 276.457C371.876 276.457 368.59 278.312 368.225 282.191C367.86 287.082 370.233 288.262 376.804 290.455L388.487 294.165C397.796 297.2 407.288 303.44 407.288 314.233C407.288 326.038 398.891 336.832 381.185 336.832C366.947 336.832 356.725 334.639 349.424 329.749L353.44 317.606C359.646 321.316 371.328 323.34 378.812 323.34C384.471 323.34 389.034 321.316 389.034 316.257C389.034 312.21 387.391 310.692 381.55 308.668L370.233 304.789C359.281 301.079 350.519 295.851 350.519 284.215C350.519 269.711 362.201 262.797 378.63 262.797C389.399 262.797 397.979 264.483 404.185 268.531L400.534 280.842Z" fill="white"/>
<path d="M485.418 300.235C485.418 321.484 472.641 337 447.998 337C423.356 337 410.578 321.484 410.578 300.235C410.578 278.48 423.356 262.965 447.998 262.965C472.641 262.965 485.418 278.48 485.418 300.235ZM466.069 300.235C466.069 284.551 458.585 276.794 447.998 276.794C437.411 276.794 430.11 284.551 430.11 300.235C430.11 315.413 437.228 323.508 447.998 323.508C458.768 323.508 466.069 315.582 466.069 300.235Z" fill="white"/>
<path d="M527.41 233.957H534.164L535.99 247.786H529.418C520.291 247.786 518.466 251.327 518.466 259.928V265.662H535.442V276.793H518.466V335.818H498.387V276.793H486.157V265.662H498.387V263.47C498.205 244.919 500.395 233.957 527.41 233.957Z" fill="white"/>
<path d="M566.286 306.814C566.286 318.619 567.016 322.498 578.151 322.498C578.516 322.498 584.54 322.16 584.54 322.16L585.635 335.989C585.635 335.989 578.151 336.832 574.318 336.832C550.771 336.832 546.207 326.376 546.207 305.97V277.301H533.064L534.16 266.17H546.207L551.136 240.199H566.286V265.665H584.905V276.795H566.286V306.814Z" fill="white"/>
<path d="M638.204 248.81L635.466 248.642C635.466 248.642 635.466 248.979 635.466 249.654C635.466 249.991 635.466 250.328 635.284 250.665C635.284 251.003 635.101 251.509 635.101 252.015C634.736 253.027 634.371 254.376 633.459 255.725C632.911 256.737 631.998 257.58 630.903 258.592L629.26 255.388C628.53 254.038 627.982 253.027 627.07 251.846C629.808 251.003 631.268 249.148 631.268 246.112C631.268 241.053 627.8 240.041 622.506 240.041H613.379V259.604C611.919 258.76 610.459 257.58 609.364 256.062C608.451 255.05 607.903 253.701 607.356 252.521C606.808 251.171 606.626 249.822 606.626 248.473C606.626 246.955 606.808 245.775 607.173 244.426C607.538 243.076 608.086 241.896 608.999 240.715C610.641 238.354 612.832 236.499 615.387 235.319C617.943 234.138 620.863 233.801 623.601 233.97C626.157 234.138 628.713 234.982 630.72 236.162C632.728 237.343 634.189 238.86 635.284 240.21C636.379 241.727 637.109 243.076 637.474 244.426C637.657 245.1 637.839 245.606 637.839 246.112C638.022 246.618 638.022 246.955 638.022 247.461C638.204 248.473 638.204 248.81 638.204 248.81C638.204 248.81 638.204 248.473 638.204 247.799C638.204 247.461 638.204 246.955 638.022 246.449C638.022 245.943 637.839 245.438 637.657 244.763C637.292 243.414 636.744 241.896 635.649 240.378C634.554 238.86 633.093 237.174 631.086 235.825C629.078 234.476 626.522 233.464 623.601 233.126C620.863 232.789 617.578 233.126 614.657 234.138C611.737 235.319 608.999 237.174 606.991 239.704C606.078 241.053 605.348 242.402 604.618 243.92C604.07 245.438 603.888 247.124 603.705 248.642C603.705 250.328 603.888 251.846 604.435 253.532C604.983 255.05 605.713 256.568 606.626 257.917C608.451 260.616 611.189 262.808 614.292 264.157C615.935 264.832 617.395 265.338 619.038 265.506C619.951 265.675 620.681 265.675 621.229 265.675C622.141 265.675 622.871 265.675 623.601 265.675C626.705 265.338 629.625 264.494 631.998 262.977C634.371 261.627 636.197 259.941 637.474 258.086C638.752 256.399 639.482 254.713 640.03 253.195C640.212 252.521 640.395 251.846 640.577 251.171C640.76 250.497 640.76 249.991 640.76 249.654C640.76 248.979 640.76 248.642 640.76 248.642L638.204 248.81ZM618.125 243.582H622.506C625.244 243.582 626.705 244.426 626.705 246.449C626.705 248.81 625.427 249.654 622.506 249.654H618.308V243.582H618.125ZM623.419 261.965C622.871 261.965 622.141 262.133 621.594 262.133C620.863 262.133 620.133 262.133 619.586 261.965C619.038 261.965 618.673 261.796 618.125 261.796V252.858C618.125 252.858 622.141 252.858 622.871 252.858C622.871 252.858 624.879 254.882 625.792 256.231L629.078 259.772C627.617 260.953 625.609 261.796 623.419 261.965Z" fill="white"/>
<path d="M145.483 387.625H136.183L134.258 392H131.683L139.608 374.5H142.083L150.033 392H147.408L145.483 387.625ZM144.608 385.625L140.833 377.05L137.058 385.625H144.608ZM163.307 392.15C162.224 392.15 161.182 392.008 160.182 391.725C159.182 391.425 158.399 391.05 157.832 390.6L158.832 388.7C159.415 389.117 160.124 389.45 160.957 389.7C161.79 389.95 162.632 390.075 163.482 390.075C165.582 390.075 166.632 389.475 166.632 388.275C166.632 387.875 166.49 387.558 166.207 387.325C165.924 387.092 165.565 386.925 165.132 386.825C164.715 386.708 164.115 386.583 163.332 386.45C162.265 386.283 161.39 386.092 160.707 385.875C160.04 385.658 159.465 385.292 158.982 384.775C158.499 384.258 158.257 383.533 158.257 382.6C158.257 381.4 158.757 380.442 159.757 379.725C160.757 378.992 162.099 378.625 163.782 378.625C164.665 378.625 165.549 378.733 166.432 378.95C167.315 379.167 168.04 379.458 168.607 379.825L167.582 381.725C166.499 381.025 165.224 380.675 163.757 380.675C162.74 380.675 161.965 380.842 161.432 381.175C160.899 381.508 160.632 381.95 160.632 382.5C160.632 382.933 160.782 383.275 161.082 383.525C161.382 383.775 161.749 383.958 162.182 384.075C162.632 384.192 163.257 384.325 164.057 384.475C165.124 384.658 165.982 384.858 166.632 385.075C167.299 385.275 167.865 385.625 168.332 386.125C168.799 386.625 169.032 387.325 169.032 388.225C169.032 389.425 168.515 390.383 167.482 391.1C166.465 391.8 165.074 392.15 163.307 392.15ZM177.956 392.15C176.64 392.15 175.456 391.858 174.406 391.275C173.356 390.692 172.531 389.892 171.931 388.875C171.348 387.842 171.056 386.675 171.056 385.375C171.056 384.075 171.348 382.917 171.931 381.9C172.531 380.867 173.356 380.067 174.406 379.5C175.456 378.917 176.64 378.625 177.956 378.625C179.273 378.625 180.448 378.917 181.481 379.5C182.531 380.067 183.348 380.867 183.931 381.9C184.531 382.917 184.831 384.075 184.831 385.375C184.831 386.675 184.531 387.842 183.931 388.875C183.348 389.892 182.531 390.692 181.481 391.275C180.448 391.858 179.273 392.15 177.956 392.15ZM177.956 390.05C178.806 390.05 179.565 389.858 180.231 389.475C180.915 389.075 181.448 388.525 181.831 387.825C182.215 387.108 182.406 386.292 182.406 385.375C182.406 384.458 182.215 383.65 181.831 382.95C181.448 382.233 180.915 381.683 180.231 381.3C179.565 380.917 178.806 380.725 177.956 380.725C177.106 380.725 176.34 380.917 175.656 381.3C174.99 381.683 174.456 382.233 174.056 382.95C173.673 383.65 173.481 384.458 173.481 385.375C173.481 386.292 173.673 387.108 174.056 387.825C174.456 388.525 174.99 389.075 175.656 389.475C176.34 389.858 177.106 390.05 177.956 390.05ZM193.25 375.275C191.817 375.275 191.1 376.05 191.1 377.6V378.75H194.95V380.725H191.15V392H188.75V380.725H186.5V378.75H188.75V377.575C188.75 376.258 189.134 375.217 189.9 374.45C190.667 373.683 191.742 373.3 193.125 373.3C193.659 373.3 194.159 373.367 194.625 373.5C195.092 373.633 195.492 373.825 195.825 374.075L195.1 375.9C194.55 375.483 193.934 375.275 193.25 375.275ZM204.914 391.225C204.564 391.525 204.131 391.758 203.614 391.925C203.097 392.075 202.564 392.15 202.014 392.15C200.681 392.15 199.647 391.792 198.914 391.075C198.181 390.358 197.814 389.333 197.814 388V380.725H195.564V378.75H197.814V375.85H200.214V378.75H204.014V380.725H200.214V387.9C200.214 388.617 200.389 389.167 200.739 389.55C201.106 389.933 201.622 390.125 202.289 390.125C203.022 390.125 203.647 389.917 204.164 389.5L204.914 391.225ZM227.871 378.75L222.921 392H220.621L216.796 381.95L212.921 392H210.621L205.696 378.75H207.971L211.821 389.3L215.821 378.75H217.846L221.771 389.35L225.721 378.75H227.871ZM234.967 378.625C236.8 378.625 238.2 379.075 239.167 379.975C240.15 380.875 240.642 382.217 240.642 384V392H238.367V390.25C237.967 390.867 237.392 391.342 236.642 391.675C235.908 391.992 235.033 392.15 234.017 392.15C232.533 392.15 231.342 391.792 230.442 391.075C229.558 390.358 229.117 389.417 229.117 388.25C229.117 387.083 229.542 386.15 230.392 385.45C231.242 384.733 232.592 384.375 234.442 384.375H238.242V383.9C238.242 382.867 237.942 382.075 237.342 381.525C236.742 380.975 235.858 380.7 234.692 380.7C233.908 380.7 233.142 380.833 232.392 381.1C231.642 381.35 231.008 381.692 230.492 382.125L229.492 380.325C230.175 379.775 230.992 379.358 231.942 379.075C232.892 378.775 233.9 378.625 234.967 378.625ZM234.417 390.3C235.333 390.3 236.125 390.1 236.792 389.7C237.458 389.283 237.942 388.7 238.242 387.95V386.1H234.542C232.508 386.1 231.492 386.783 231.492 388.15C231.492 388.817 231.75 389.342 232.267 389.725C232.783 390.108 233.5 390.3 234.417 390.3ZM247.633 380.975C248.05 380.208 248.666 379.625 249.483 379.225C250.3 378.825 251.291 378.625 252.458 378.625V380.95C252.325 380.933 252.141 380.925 251.908 380.925C250.608 380.925 249.583 381.317 248.833 382.1C248.1 382.867 247.733 383.967 247.733 385.4V392H245.333V378.75H247.633V380.975ZM267.519 385.45C267.519 385.633 267.502 385.875 267.469 386.175H256.719C256.869 387.342 257.377 388.283 258.244 389C259.127 389.7 260.219 390.05 261.519 390.05C263.102 390.05 264.377 389.517 265.344 388.45L266.669 390C266.069 390.7 265.319 391.233 264.419 391.6C263.536 391.967 262.544 392.15 261.444 392.15C260.044 392.15 258.802 391.867 257.719 391.3C256.636 390.717 255.794 389.908 255.194 388.875C254.611 387.842 254.319 386.675 254.319 385.375C254.319 384.092 254.602 382.933 255.169 381.9C255.752 380.867 256.544 380.067 257.544 379.5C258.561 378.917 259.702 378.625 260.969 378.625C262.236 378.625 263.361 378.917 264.344 379.5C265.344 380.067 266.119 380.867 266.669 381.9C267.236 382.933 267.519 384.117 267.519 385.45ZM260.969 380.65C259.819 380.65 258.852 381 258.069 381.7C257.302 382.4 256.852 383.317 256.719 384.45H265.219C265.086 383.333 264.627 382.425 263.844 381.725C263.077 381.008 262.119 380.65 260.969 380.65ZM290.566 373.45V392H288.266V389.9C287.732 390.633 287.057 391.192 286.241 391.575C285.424 391.958 284.524 392.15 283.541 392.15C282.257 392.15 281.107 391.867 280.091 391.3C279.074 390.733 278.274 389.942 277.691 388.925C277.124 387.892 276.841 386.708 276.841 385.375C276.841 384.042 277.124 382.867 277.691 381.85C278.274 380.833 279.074 380.042 280.091 379.475C281.107 378.908 282.257 378.625 283.541 378.625C284.491 378.625 285.366 378.808 286.166 379.175C286.966 379.525 287.632 380.05 288.166 380.75V373.45H290.566ZM283.741 390.05C284.574 390.05 285.332 389.858 286.016 389.475C286.699 389.075 287.232 388.525 287.616 387.825C287.999 387.108 288.191 386.292 288.191 385.375C288.191 384.458 287.999 383.65 287.616 382.95C287.232 382.233 286.699 381.683 286.016 381.3C285.332 380.917 284.574 380.725 283.741 380.725C282.891 380.725 282.124 380.917 281.441 381.3C280.774 381.683 280.241 382.233 279.841 382.95C279.457 383.65 279.266 384.458 279.266 385.375C279.266 386.292 279.457 387.108 279.841 387.825C280.241 388.525 280.774 389.075 281.441 389.475C282.124 389.858 282.891 390.05 283.741 390.05ZM307.332 385.45C307.332 385.633 307.315 385.875 307.282 386.175H296.532C296.682 387.342 297.19 388.283 298.057 389C298.94 389.7 300.032 390.05 301.332 390.05C302.915 390.05 304.19 389.517 305.157 388.45L306.482 390C305.882 390.7 305.132 391.233 304.232 391.6C303.348 391.967 302.357 392.15 301.257 392.15C299.857 392.15 298.615 391.867 297.532 391.3C296.448 390.717 295.607 389.908 295.007 388.875C294.423 387.842 294.132 386.675 294.132 385.375C294.132 384.092 294.415 382.933 294.982 381.9C295.565 380.867 296.357 380.067 297.357 379.5C298.373 378.917 299.515 378.625 300.782 378.625C302.048 378.625 303.173 378.917 304.157 379.5C305.157 380.067 305.932 380.867 306.482 381.9C307.048 382.933 307.332 384.117 307.332 385.45ZM300.782 380.65C299.632 380.65 298.665 381 297.882 381.7C297.115 382.4 296.665 383.317 296.532 384.45H305.032C304.898 383.333 304.44 382.425 303.657 381.725C302.89 381.008 301.932 380.65 300.782 380.65ZM322.395 378.75L316.595 392H314.145L308.345 378.75H310.845L315.395 389.375L320.045 378.75H322.395ZM336.494 385.45C336.494 385.633 336.477 385.875 336.444 386.175H325.694C325.844 387.342 326.352 388.283 327.219 389C328.102 389.7 329.194 390.05 330.494 390.05C332.077 390.05 333.352 389.517 334.319 388.45L335.644 390C335.044 390.7 334.294 391.233 333.394 391.6C332.51 391.967 331.519 392.15 330.419 392.15C329.019 392.15 327.777 391.867 326.694 391.3C325.61 390.717 324.769 389.908 324.169 388.875C323.585 387.842 323.294 386.675 323.294 385.375C323.294 384.092 323.577 382.933 324.144 381.9C324.727 380.867 325.519 380.067 326.519 379.5C327.535 378.917 328.677 378.625 329.944 378.625C331.21 378.625 332.335 378.917 333.319 379.5C334.319 380.067 335.094 380.867 335.644 381.9C336.21 382.933 336.494 384.117 336.494 385.45ZM329.944 380.65C328.794 380.65 327.827 381 327.044 381.7C326.277 382.4 325.827 383.317 325.694 384.45H334.194C334.06 383.333 333.602 382.425 332.819 381.725C332.052 381.008 331.094 380.65 329.944 380.65ZM340.076 373.45H342.476V392H340.076V373.45ZM352.984 392.15C351.667 392.15 350.484 391.858 349.434 391.275C348.384 390.692 347.559 389.892 346.959 388.875C346.375 387.842 346.084 386.675 346.084 385.375C346.084 384.075 346.375 382.917 346.959 381.9C347.559 380.867 348.384 380.067 349.434 379.5C350.484 378.917 351.667 378.625 352.984 378.625C354.3 378.625 355.475 378.917 356.509 379.5C357.559 380.067 358.375 380.867 358.959 381.9C359.559 382.917 359.859 384.075 359.859 385.375C359.859 386.675 359.559 387.842 358.959 388.875C358.375 389.892 357.559 390.692 356.509 391.275C355.475 391.858 354.3 392.15 352.984 392.15ZM352.984 390.05C353.834 390.05 354.592 389.858 355.259 389.475C355.942 389.075 356.475 388.525 356.859 387.825C357.242 387.108 357.434 386.292 357.434 385.375C357.434 384.458 357.242 383.65 356.859 382.95C356.475 382.233 355.942 381.683 355.259 381.3C354.592 380.917 353.834 380.725 352.984 380.725C352.134 380.725 351.367 380.917 350.684 381.3C350.017 381.683 349.484 382.233 349.084 382.95C348.7 383.65 348.509 384.458 348.509 385.375C348.509 386.292 348.7 387.108 349.084 387.825C349.484 388.525 350.017 389.075 350.684 389.475C351.367 389.858 352.134 390.05 352.984 390.05ZM370.453 378.625C371.736 378.625 372.886 378.908 373.903 379.475C374.919 380.042 375.711 380.833 376.278 381.85C376.861 382.867 377.153 384.042 377.153 385.375C377.153 386.708 376.861 387.892 376.278 388.925C375.711 389.942 374.919 390.733 373.903 391.3C372.886 391.867 371.736 392.15 370.453 392.15C369.503 392.15 368.628 391.967 367.828 391.6C367.044 391.233 366.378 390.7 365.828 390V396.85H363.428V378.75H365.728V380.85C366.261 380.117 366.936 379.567 367.753 379.2C368.569 378.817 369.469 378.625 370.453 378.625ZM370.253 390.05C371.103 390.05 371.861 389.858 372.528 389.475C373.211 389.075 373.744 388.525 374.128 387.825C374.528 387.108 374.728 386.292 374.728 385.375C374.728 384.458 374.528 383.65 374.128 382.95C373.744 382.233 373.211 381.683 372.528 381.3C371.861 380.917 371.103 380.725 370.253 380.725C369.419 380.725 368.661 380.925 367.978 381.325C367.311 381.708 366.778 382.25 366.378 382.95C365.994 383.65 365.803 384.458 365.803 385.375C365.803 386.292 365.994 387.108 366.378 387.825C366.761 388.525 367.294 389.075 367.978 389.475C368.661 389.858 369.419 390.05 370.253 390.05ZM397.294 378.625C398.961 378.625 400.277 379.108 401.244 380.075C402.227 381.042 402.719 382.475 402.719 384.375V392H400.319V384.65C400.319 383.367 400.019 382.4 399.419 381.75C398.836 381.1 397.994 380.775 396.894 380.775C395.677 380.775 394.711 381.158 393.994 381.925C393.277 382.675 392.919 383.758 392.919 385.175V392H390.519V384.65C390.519 383.367 390.219 382.4 389.619 381.75C389.036 381.1 388.194 380.775 387.094 380.775C385.877 380.775 384.911 381.158 384.194 381.925C383.477 382.675 383.119 383.758 383.119 385.175V392H380.719V378.75H383.019V380.725C383.502 380.042 384.136 379.525 384.919 379.175C385.702 378.808 386.594 378.625 387.594 378.625C388.627 378.625 389.544 378.833 390.344 379.25C391.144 379.667 391.761 380.275 392.194 381.075C392.694 380.308 393.386 379.708 394.269 379.275C395.169 378.842 396.177 378.625 397.294 378.625ZM419.433 385.45C419.433 385.633 419.416 385.875 419.383 386.175H408.633C408.783 387.342 409.291 388.283 410.158 389C411.041 389.7 412.133 390.05 413.433 390.05C415.016 390.05 416.291 389.517 417.258 388.45L418.583 390C417.983 390.7 417.233 391.233 416.333 391.6C415.45 391.967 414.458 392.15 413.358 392.15C411.958 392.15 410.716 391.867 409.633 391.3C408.55 390.717 407.708 389.908 407.108 388.875C406.525 387.842 406.233 386.675 406.233 385.375C406.233 384.092 406.516 382.933 407.083 381.9C407.666 380.867 408.458 380.067 409.458 379.5C410.475 378.917 411.616 378.625 412.883 378.625C414.15 378.625 415.275 378.917 416.258 379.5C417.258 380.067 418.033 380.867 418.583 381.9C419.15 382.933 419.433 384.117 419.433 385.45ZM412.883 380.65C411.733 380.65 410.766 381 409.983 381.7C409.216 382.4 408.766 383.317 408.633 384.45H417.133C417 383.333 416.541 382.425 415.758 381.725C414.991 381.008 414.033 380.65 412.883 380.65ZM430.091 378.625C431.774 378.625 433.107 379.117 434.091 380.1C435.091 381.067 435.591 382.492 435.591 384.375V392H433.191V384.65C433.191 383.367 432.882 382.4 432.266 381.75C431.649 381.1 430.766 380.775 429.616 380.775C428.316 380.775 427.291 381.158 426.541 381.925C425.791 382.675 425.416 383.758 425.416 385.175V392H423.016V378.75H425.316V380.75C425.799 380.067 426.449 379.542 427.266 379.175C428.099 378.808 429.041 378.625 430.091 378.625ZM447.732 391.225C447.382 391.525 446.949 391.758 446.432 391.925C445.916 392.075 445.382 392.15 444.832 392.15C443.499 392.15 442.466 391.792 441.732 391.075C440.999 390.358 440.632 389.333 440.632 388V380.725H438.382V378.75H440.632V375.85H443.032V378.75H446.832V380.725H443.032V387.9C443.032 388.617 443.207 389.167 443.557 389.55C443.924 389.933 444.441 390.125 445.107 390.125C445.841 390.125 446.466 389.917 446.982 389.5L447.732 391.225ZM463.623 392.15C462.273 392.15 461.064 391.858 459.998 391.275C458.948 390.692 458.123 389.892 457.523 388.875C456.923 387.842 456.623 386.675 456.623 385.375C456.623 384.075 456.923 382.917 457.523 381.9C458.123 380.867 458.948 380.067 459.998 379.5C461.064 378.917 462.273 378.625 463.623 378.625C464.823 378.625 465.889 378.867 466.823 379.35C467.773 379.833 468.506 380.533 469.023 381.45L467.198 382.625C466.781 381.992 466.264 381.517 465.648 381.2C465.031 380.883 464.348 380.725 463.598 380.725C462.731 380.725 461.948 380.917 461.248 381.3C460.564 381.683 460.023 382.233 459.623 382.95C459.239 383.65 459.048 384.458 459.048 385.375C459.048 386.308 459.239 387.133 459.623 387.85C460.023 388.55 460.564 389.092 461.248 389.475C461.948 389.858 462.731 390.05 463.598 390.05C464.348 390.05 465.031 389.892 465.648 389.575C466.264 389.258 466.781 388.783 467.198 388.15L469.023 389.3C468.506 390.217 467.773 390.925 466.823 391.425C465.889 391.908 464.823 392.15 463.623 392.15ZM477.86 392.15C476.543 392.15 475.36 391.858 474.31 391.275C473.26 390.692 472.435 389.892 471.835 388.875C471.251 387.842 470.96 386.675 470.96 385.375C470.96 384.075 471.251 382.917 471.835 381.9C472.435 380.867 473.26 380.067 474.31 379.5C475.36 378.917 476.543 378.625 477.86 378.625C479.176 378.625 480.351 378.917 481.385 379.5C482.435 380.067 483.251 380.867 483.835 381.9C484.435 382.917 484.735 384.075 484.735 385.375C484.735 386.675 484.435 387.842 483.835 388.875C483.251 389.892 482.435 390.692 481.385 391.275C480.351 391.858 479.176 392.15 477.86 392.15ZM477.86 390.05C478.71 390.05 479.468 389.858 480.135 389.475C480.818 389.075 481.351 388.525 481.735 387.825C482.118 387.108 482.31 386.292 482.31 385.375C482.31 384.458 482.118 383.65 481.735 382.95C481.351 382.233 480.818 381.683 480.135 381.3C479.468 380.917 478.71 380.725 477.86 380.725C477.01 380.725 476.243 380.917 475.56 381.3C474.893 381.683 474.36 382.233 473.96 382.95C473.576 383.65 473.385 384.458 473.385 385.375C473.385 386.292 473.576 387.108 473.96 387.825C474.36 388.525 474.893 389.075 475.56 389.475C476.243 389.858 477.01 390.05 477.86 390.05ZM504.879 378.625C506.545 378.625 507.862 379.108 508.829 380.075C509.812 381.042 510.304 382.475 510.304 384.375V392H507.904V384.65C507.904 383.367 507.604 382.4 507.004 381.75C506.42 381.1 505.579 380.775 504.479 380.775C503.262 380.775 502.295 381.158 501.579 381.925C500.862 382.675 500.504 383.758 500.504 385.175V392H498.104V384.65C498.104 383.367 497.804 382.4 497.204 381.75C496.62 381.1 495.779 380.775 494.679 380.775C493.462 380.775 492.495 381.158 491.779 381.925C491.062 382.675 490.704 383.758 490.704 385.175V392H488.304V378.75H490.604V380.725C491.087 380.042 491.72 379.525 492.504 379.175C493.287 378.808 494.179 378.625 495.179 378.625C496.212 378.625 497.129 378.833 497.929 379.25C498.729 379.667 499.345 380.275 499.779 381.075C500.279 380.308 500.97 379.708 501.854 379.275C502.754 378.842 503.762 378.625 504.879 378.625ZM521.995 378.625C523.278 378.625 524.428 378.908 525.445 379.475C526.461 380.042 527.253 380.833 527.82 381.85C528.403 382.867 528.695 384.042 528.695 385.375C528.695 386.708 528.403 387.892 527.82 388.925C527.253 389.942 526.461 390.733 525.445 391.3C524.428 391.867 523.278 392.15 521.995 392.15C521.045 392.15 520.17 391.967 519.37 391.6C518.586 391.233 517.92 390.7 517.37 390V396.85H514.97V378.75H517.27V380.85C517.803 380.117 518.478 379.567 519.295 379.2C520.111 378.817 521.011 378.625 521.995 378.625ZM521.795 390.05C522.645 390.05 523.403 389.858 524.07 389.475C524.753 389.075 525.286 388.525 525.67 387.825C526.07 387.108 526.27 386.292 526.27 385.375C526.27 384.458 526.07 383.65 525.67 382.95C525.286 382.233 524.753 381.683 524.07 381.3C523.403 380.917 522.645 380.725 521.795 380.725C520.961 380.725 520.203 380.925 519.52 381.325C518.853 381.708 518.32 382.25 517.92 382.95C517.536 383.65 517.345 384.458 517.345 385.375C517.345 386.292 517.536 387.108 517.92 387.825C518.303 388.525 518.836 389.075 519.52 389.475C520.203 389.858 520.961 390.05 521.795 390.05ZM536.964 378.625C538.797 378.625 540.197 379.075 541.164 379.975C542.147 380.875 542.639 382.217 542.639 384V392H540.364V390.25C539.964 390.867 539.389 391.342 538.639 391.675C537.905 391.992 537.03 392.15 536.014 392.15C534.53 392.15 533.339 391.792 532.439 391.075C531.555 390.358 531.114 389.417 531.114 388.25C531.114 387.083 531.539 386.15 532.389 385.45C533.239 384.733 534.589 384.375 536.439 384.375H540.239V383.9C540.239 382.867 539.939 382.075 539.339 381.525C538.739 380.975 537.855 380.7 536.689 380.7C535.905 380.7 535.139 380.833 534.389 381.1C533.639 381.35 533.005 381.692 532.489 382.125L531.489 380.325C532.172 379.775 532.989 379.358 533.939 379.075C534.889 378.775 535.897 378.625 536.964 378.625ZM536.414 390.3C537.33 390.3 538.122 390.1 538.789 389.7C539.455 389.283 539.939 388.7 540.239 387.95V386.1H536.539C534.505 386.1 533.489 386.783 533.489 388.15C533.489 388.817 533.747 389.342 534.264 389.725C534.78 390.108 535.497 390.3 536.414 390.3ZM554.405 378.625C556.089 378.625 557.422 379.117 558.405 380.1C559.405 381.067 559.905 382.492 559.905 384.375V392H557.505V384.65C557.505 383.367 557.197 382.4 556.58 381.75C555.964 381.1 555.08 380.775 553.93 380.775C552.63 380.775 551.605 381.158 550.855 381.925C550.105 382.675 549.73 383.758 549.73 385.175V392H547.33V378.75H549.63V380.75C550.114 380.067 550.764 379.542 551.58 379.175C552.414 378.808 553.355 378.625 554.405 378.625ZM576.078 378.75L569.653 393.325C569.086 394.675 568.419 395.625 567.653 396.175C566.903 396.725 565.994 397 564.928 397C564.278 397 563.644 396.892 563.028 396.675C562.428 396.475 561.928 396.175 561.528 395.775L562.553 393.975C563.236 394.625 564.028 394.95 564.928 394.95C565.511 394.95 565.994 394.792 566.378 394.475C566.778 394.175 567.136 393.65 567.453 392.9L567.878 391.975L562.028 378.75H564.528L569.153 389.35L573.728 378.75H576.078Z" fill="white"/>
<defs>
<linearGradient id="paint0_linear" x1="143.871" y1="103.015" x2="511.443" y2="150.122" gradientUnits="userSpaceOnUse">
<stop stop-color="#DC6D3E"/>
<stop offset="0.0001" stop-color="#ED9E40"/>
<stop offset="1" stop-color="#CC1276"/>
</linearGradient>
</defs>
</svg>
